{"glyphs":{"0":{"ha":856,"x_min":45,"x_max":810,"o":"m 576 682 q 554 784 576 749 q 489 819 531 819 q 425 793 456 819 q 371 721 393 768 q 334 624 351 679 q 301 498 317 570 q 280 382 288 435 q 273 289 273 329 q 298 183 273 220 q 367 146 322 146 q 427 169 399 146 q 478 239 455 193 q 516 337 498 282 q 547 458 533 392 q 569 581 562 524 q 576 682 576 637 m 475 987 q 726 898 643 987 q 810 628 810 808 q 774 362 810 493 q 677 138 739 231 q 549 17 626 58 q 375 -24 472 -24 q 130 72 216 -24 q 45 347 45 168 q 86 627 45 492 q 199 852 127 762 q 321 952 250 918 q 475 987 393 987 z "},"1":{"ha":856,"x_min":143,"x_max":713,"o":"m 524 964 l 713 964 l 515 0 l 272 0 l 433 720 l 241 581 l 143 766 l 524 964 z "},"2":{"ha":856,"x_min":-9,"x_max":793,"o":"m 566 338 l 342 180 l 711 180 l 672 0 l -9 0 l 26 180 l 386 453 q 507 570 470 516 q 545 677 545 623 q 506 772 545 738 q 401 807 467 807 q 311 793 362 807 q 172 745 259 779 l 200 949 q 332 981 268 970 q 456 991 395 991 q 702 914 611 991 q 793 704 793 837 q 734 510 793 604 q 566 338 675 415 z "},"3":{"ha":856,"x_min":-20,"x_max":800,"o":"m 547 498 q 679 424 635 475 q 722 296 722 373 q 610 61 722 145 q 294 -22 498 -22 q 141 -6 219 -22 q -20 41 62 9 l 32 233 q 138 189 81 203 q 264 174 196 174 q 421 211 363 174 q 479 313 479 249 q 431 391 479 366 q 278 416 382 416 q 242 416 256 416 q 217 416 229 416 l 252 582 q 285 581 264 582 q 317 581 307 581 q 508 606 454 581 q 562 693 562 631 q 521 775 562 745 q 408 806 480 806 q 300 794 360 806 q 170 760 240 783 l 199 950 q 332 976 265 968 q 467 985 399 985 q 711 918 623 985 q 800 734 800 851 q 732 574 800 638 q 547 498 665 511 z "},"4":{"ha":856,"x_min":-9,"x_max":819,"o":"m 562 791 l 214 364 l 460 364 l 562 791 m 528 964 l 810 964 l 682 364 l 819 364 l 782 193 l 646 193 l 606 0 l 366 0 l 406 193 l -9 193 l 18 364 l 528 964 z "},"5":{"ha":856,"x_min":20,"x_max":859,"o":"m 231 964 l 859 964 l 821 790 l 411 790 l 378 632 q 411 634 399 633 q 431 635 422 635 q 665 556 578 635 q 753 347 753 478 q 724 212 753 275 q 640 100 695 149 q 489 14 577 44 q 304 -17 401 -17 q 161 -4 232 -17 q 20 36 91 9 l 61 233 q 169 186 111 202 q 290 171 226 171 q 448 217 389 171 q 507 336 507 262 q 455 440 507 405 q 304 476 404 476 q 226 472 273 476 q 117 460 179 468 l 231 964 z "},"6":{"ha":856,"x_min":60,"x_max":842,"o":"m 416 458 q 318 410 355 458 q 281 283 281 362 q 309 180 281 216 q 390 144 336 144 q 492 197 452 144 q 532 329 532 249 q 500 423 532 387 q 416 458 469 458 m 842 911 l 787 746 q 690 797 741 780 q 583 814 640 814 q 421 754 484 814 q 321 561 359 694 q 403 602 361 589 q 494 615 446 615 q 694 537 619 615 q 768 329 768 460 q 667 77 768 173 q 397 -20 565 -20 q 149 77 239 -20 q 60 347 60 174 q 87 567 60 458 q 163 758 115 675 q 330 928 229 871 q 566 985 431 985 q 703 966 635 985 q 842 911 772 948 z "},"7":{"ha":856,"x_min":49,"x_max":875,"o":"m 178 964 l 875 964 l 831 751 l 330 0 l 49 0 l 497 669 q 535 721 510 688 q 591 790 560 753 l 142 790 l 178 964 z "},"8":{"ha":856,"x_min":20,"x_max":822,"o":"m 411 424 q 292 356 328 393 q 256 264 256 318 q 288 179 256 209 q 380 149 321 149 q 481 187 441 149 q 522 282 522 226 q 498 353 522 321 q 411 424 473 385 m 593 492 q 714 401 676 452 q 751 279 751 350 q 653 55 751 131 q 361 -21 554 -21 q 111 51 201 -21 q 20 248 20 122 q 83 415 20 344 q 254 514 146 487 q 165 602 193 553 q 136 718 136 652 q 236 916 136 840 q 503 991 336 991 q 737 924 652 991 q 822 737 822 856 q 764 584 822 646 q 593 492 705 521 m 443 576 q 561 643 519 602 q 603 734 603 685 q 569 803 603 774 q 486 831 536 831 q 392 794 427 831 q 357 697 357 758 q 378 636 357 667 q 443 576 400 606 z "},"9":{"ha":856,"x_min":8,"x_max":791,"o":"m 8 50 l 69 221 q 169 172 121 188 q 267 155 218 155 q 439 222 371 155 q 533 415 507 288 q 457 371 499 385 q 359 357 414 357 q 162 434 236 357 q 87 639 87 511 q 186 887 87 791 q 443 983 284 983 q 702 887 612 983 q 791 611 791 791 q 760 375 791 490 q 669 175 728 261 q 513 28 600 73 q 290 -17 425 -17 q 138 0 208 -17 q 8 50 68 16 m 575 688 q 547 790 575 754 q 465 825 518 825 q 369 774 409 825 q 329 650 329 724 q 356 553 329 586 q 437 519 384 519 q 537 566 498 519 q 575 688 575 612 z "},"":{"ha":833,"x_min":69,"x_max":764,"o":"m 69 -245 l 69 979 l 764 979 l 764 -245 l 69 -245 m 147 -168 l 686 -168 l 686 901 l 147 901 l 147 -168 z "},"Ĉ":{"ha":833,"x_min":69,"x_max":764,"o":"m 69 -245 l 69 979 l 764 979 l 764 -245 l 69 -245 m 147 -168 l 686 -168 l 686 901 l 147 901 l 147 -168 z "},"ĉ":{"ha":833,"x_min":69,"x_max":764,"o":"m 69 -245 l 69 979 l 764 979 l 764 -245 l 69 -245 m 147 -168 l 686 -168 l 686 901 l 147 901 l 147 -168 z "},"Ċ":{"ha":833,"x_min":69,"x_max":764,"o":"m 69 -245 l 69 979 l 764 979 l 764 -245 l 69 -245 m 147 -168 l 686 -168 l 686 901 l 147 901 l 147 -168 z "},"ċ":{"ha":833,"x_min":69,"x_max":764,"o":"m 69 -245 l 69 979 l 764 979 l 764 -245 l 69 -245 m 147 -168 l 686 -168 l 686 901 l 147 901 l 147 -168 z "},"Ď":{"ha":833,"x_min":69,"x_max":764,"o":"m 69 -245 l 69 979 l 764 979 l 764 -245 l 69 -245 m 147 -168 l 686 -168 l 686 901 l 147 901 l 147 -168 z "},"ď":{"ha":833,"x_min":69,"x_max":764,"o":"m 69 -245 l 69 979 l 764 979 l 764 -245 l 69 -245 m 147 -168 l 686 -168 l 686 901 l 147 901 l 147 -168 z "},"Đ":{"ha":833,"x_min":69,"x_max":764,"o":"m 69 -245 l 69 979 l 764 979 l 764 -245 l 69 -245 m 147 -168 l 686 -168 l 686 901 l 147 901 l 147 -168 z "},"Ź":{"ha":833,"x_min":69,"x_max":764,"o":"m 69 -245 l 69 979 l 764 979 l 764 -245 l 69 -245 m 147 -168 l 686 -168 l 686 901 l 147 901 l 147 -168 z "},"ź":{"ha":833,"x_min":69,"x_max":764,"o":"m 69 -245 l 69 979 l 764 979 l 764 -245 l 69 -245 m 147 -168 l 686 -168 l 686 901 l 147 901 l 147 -168 z "},"Ż":{"ha":833,"x_min":69,"x_max":764,"o":"m 69 -245 l 69 979 l 764 979 l 764 -245 l 69 -245 m 147 -168 l 686 -168 l 686 901 l 147 901 l 147 -168 z "},"ż":{"ha":833,"x_min":69,"x_max":764,"o":"m 69 -245 l 69 979 l 764 979 l 764 -245 l 69 -245 m 147 -168 l 686 -168 l 686 901 l 147 901 l 147 -168 z "},"―":{"ha":833,"x_min":69,"x_max":764,"o":"m 69 -245 l 69 979 l 764 979 l 764 -245 l 69 -245 m 147 -168 l 686 -168 l 686 901 l 147 901 l 147 -168 z "},"‖":{"ha":833,"x_min":69,"x_max":764,"o":"m 69 -245 l 69 979 l 764 979 l 764 -245 l 69 -245 m 147 -168 l 686 -168 l 686 901 l 147 901 l 147 -168 z "},"‗":{"ha":833,"x_min":69,"x_max":764,"o":"m 69 -245 l 69 979 l 764 979 l 764 -245 l 69 -245 m 147 -168 l 686 -168 l 686 901 l 147 901 l 147 -168 z "},"‛":{"ha":833,"x_min":69,"x_max":764,"o":"m 69 -245 l 69 979 l 764 979 l 764 -245 l 69 -245 m 147 -168 l 686 -168 l 686 901 l 147 901 l 147 -168 z "},"‟":{"ha":833,"x_min":69,"x_max":764,"o":"m 69 -245 l 69 979 l 764 979 l 764 -245 l 69 -245 m 147 -168 l 686 -168 l 686 901 l 147 901 l 147 -168 z "},"‣":{"ha":833,"x_min":69,"x_max":764,"o":"m 69 -245 l 69 979 l 764 979 l 764 -245 l 69 -245 m 147 -168 l 686 -168 l 686 901 l 147 901 l 147 -168 z "},"․":{"ha":833,"x_min":69,"x_max":764,"o":"m 69 -245 l 69 979 l 764 979 l 764 -245 l 69 -245 m 147 -168 l 686 -168 l 686 901 l 147 901 l 147 -168 z "},"‥":{"ha":833,"x_min":69,"x_max":764,"o":"m 69 -245 l 69 979 l 764 979 l 764 -245 l 69 -245 m 147 -168 l 686 -168 l 686 901 l 147 901 l 147 -168 z "},"∃":{"ha":833,"x_min":69,"x_max":764,"o":"m 69 -245 l 69 979 l 764 979 l 764 -245 l 69 -245 m 147 -168 l 686 -168 l 686 901 l 147 901 l 147 -168 z "},"∄":{"ha":833,"x_min":69,"x_max":764,"o":"m 69 -245 l 69 979 l 764 979 l 764 -245 l 69 -245 m 147 -168 l 686 -168 l 686 901 l 147 901 l 147 -168 z "},"∅":{"ha":833,"x_min":69,"x_max":764,"o":"m 69 -245 l 69 979 l 764 979 l 764 -245 l 69 -245 m 147 -168 l 686 -168 l 686 901 l 147 901 l 147 -168 z "},"∐":{"ha":833,"x_min":69,"x_max":764,"o":"m 69 -245 l 69 979 l 764 979 l 764 -245 l 69 -245 m 147 -168 l 686 -168 l 686 901 l 147 901 l 147 -168 z "},"∓":{"ha":833,"x_min":69,"x_max":764,"o":"m 69 -245 l 69 979 l 764 979 l 764 -245 l 69 -245 m 147 -168 l 686 -168 l 686 901 l 147 901 l 147 -168 z "},"∔":{"ha":833,"x_min":69,"x_max":764,"o":"m 69 -245 l 69 979 l 764 979 l 764 -245 l 69 -245 m 147 -168 l 686 -168 l 686 901 l 147 901 l 147 -168 z "},"∖":{"ha":833,"x_min":69,"x_max":764,"o":"m 69 -245 l 69 979 l 764 979 l 764 -245 l 69 -245 m 147 -168 l 686 -168 l 686 901 l 147 901 l 147 -168 z "},"∗":{"ha":833,"x_min":69,"x_max":764,"o":"m 69 -245 l 69 979 l 764 979 l 764 -245 l 69 -245 m 147 -168 l 686 -168 l 686 901 l 147 901 l 147 -168 z "},"∘":{"ha":833,"x_min":69,"x_max":764,"o":"m 69 -245 l 69 979 l 764 979 l 764 -245 l 69 -245 m 147 -168 l 686 -168 l 686 901 l 147 901 l 147 -168 z "},"∛":{"ha":833,"x_min":69,"x_max":764,"o":"m 69 -245 l 69 979 l 764 979 l 764 -245 l 69 -245 m 147 -168 l 686 -168 l 686 901 l 147 901 l 147 -168 z "},"∜":{"ha":833,"x_min":69,"x_max":764,"o":"m 69 -245 l 69 979 l 764 979 l 764 -245 l 69 -245 m 147 -168 l 686 -168 l 686 901 l 147 901 l 147 -168 z "},"∝":{"ha":833,"x_min":69,"x_max":764,"o":"m 69 -245 l 69 979 l 764 979 l 764 -245 l 69 -245 m 147 -168 l 686 -168 l 686 901 l 147 901 l 147 -168 z "},"≡":{"ha":833,"x_min":69,"x_max":764,"o":"m 69 -245 l 69 979 l 764 979 l 764 -245 l 69 -245 m 147 -168 l 686 -168 l 686 901 l 147 901 l 147 -168 z "},"≢":{"ha":833,"x_min":69,"x_max":764,"o":"m 69 -245 l 69 979 l 764 979 l 764 -245 l 69 -245 m 147 -168 l 686 -168 l 686 901 l 147 901 l 147 -168 z "},"≣":{"ha":833,"x_min":69,"x_max":764,"o":"m 69 -245 l 69 979 l 764 979 l 764 -245 l 69 -245 m 147 -168 l 686 -168 l 686 901 l 147 901 l 147 -168 z "}," ":{"ha":428,"x_min":0,"x_max":0,"o":""},"!":{"ha":611,"x_min":94,"x_max":538,"o":"m 139 222 l 368 222 l 323 0 l 94 0 l 139 222 m 283 964 l 538 964 l 368 315 l 178 315 l 283 964 z "},"\"":{"ha":484,"x_min":52,"x_max":433,"o":"m 282 975 l 433 975 l 433 595 l 282 595 l 282 975 m 52 975 l 200 975 l 200 595 l 52 595 l 52 975 z "},"#":{"ha":1068,"x_min":16,"x_max":1053,"o":"m 479 571 l 424 414 l 590 414 l 646 571 l 479 571 m 464 994 l 633 994 l 539 728 l 699 728 l 794 994 l 964 994 l 869 728 l 1053 728 l 994 571 l 812 571 l 758 415 l 946 415 l 889 258 l 703 258 l 607 -8 l 437 -8 l 532 258 l 372 258 l 277 -8 l 107 -8 l 201 258 l 16 258 l 74 415 l 257 415 l 313 571 l 121 571 l 179 728 l 368 728 l 464 994 z "},"$":{"ha":856,"x_min":8,"x_max":817,"o":"m 441 399 l 392 171 l 395 171 q 492 208 454 171 q 530 300 530 245 q 509 361 530 337 q 441 399 487 386 m 471 804 q 374 772 410 800 q 339 700 339 744 q 360 649 339 670 q 431 612 382 629 l 471 804 m 530 1090 l 610 1090 l 585 971 q 697 957 640 967 q 817 932 755 947 l 762 754 q 657 788 710 775 q 549 804 604 800 l 505 597 q 697 497 635 562 q 760 338 760 433 q 651 90 760 184 q 366 -5 543 -5 l 358 -5 l 330 -122 l 254 -122 l 277 -7 q 142 5 210 -6 q 8 39 75 17 l 62 228 q 204 186 142 201 q 315 170 266 172 l 367 410 q 175 518 237 452 q 114 684 114 585 q 218 891 114 813 q 498 970 322 970 l 507 970 l 530 1090 z "},"%":{"ha":1318,"x_min":50,"x_max":1268,"o":"m 1023 422 q 972 385 988 422 q 957 260 957 348 q 972 135 957 171 q 1023 98 987 98 q 1075 135 1060 98 q 1090 260 1090 171 q 1075 386 1090 349 q 1023 422 1059 422 m 1025 543 q 1202 467 1137 543 q 1268 260 1268 390 q 1202 54 1268 130 q 1025 -22 1136 -22 q 847 55 914 -22 q 781 260 781 132 q 847 467 781 390 q 1025 543 913 543 m 293 867 q 241 829 257 867 q 225 704 225 791 q 240 578 225 614 q 292 542 256 542 q 343 578 328 542 q 358 704 358 614 q 343 830 358 794 q 293 867 328 867 m 842 987 l 985 987 l 476 -22 l 332 -22 l 842 987 m 293 987 q 470 911 404 987 q 536 704 536 834 q 470 498 536 574 q 293 421 404 421 q 116 498 182 421 q 50 704 50 574 q 116 911 50 834 q 293 987 182 987 z "},"&":{"ha":1071,"x_min":32,"x_max":1025,"o":"m 374 415 q 287 348 317 386 q 257 265 257 309 q 293 172 257 205 q 395 139 329 139 q 476 152 436 139 q 553 191 515 165 l 374 415 m 566 490 l 707 311 q 782 409 753 356 q 822 521 811 461 l 1025 521 q 949 314 998 403 q 823 160 899 225 l 958 0 l 704 0 l 661 57 q 524 -5 595 16 q 370 -25 452 -25 q 122 50 213 -25 q 32 252 32 124 q 97 437 32 359 q 273 543 161 515 q 211 638 232 591 q 191 733 191 686 q 282 919 191 850 q 532 989 374 989 q 746 924 665 989 q 827 753 827 859 q 763 604 827 669 q 566 490 699 540 m 473 610 q 583 670 546 635 q 619 746 619 704 q 591 808 619 783 q 519 833 562 833 q 435 803 468 833 q 403 725 403 772 q 418 673 403 699 q 473 610 433 648 z "},"'":{"ha":252,"x_min":52,"x_max":200,"o":"m 52 975 l 200 975 l 200 595 l 52 595 l 52 975 z "},"(":{"ha":538,"x_min":92,"x_max":656,"o":"m 444 1059 l 656 1059 q 393 681 483 885 q 302 260 302 476 q 327 27 302 140 q 399 -193 351 -85 l 216 -193 q 123 66 154 -62 q 92 322 92 195 q 182 716 92 529 q 444 1059 272 904 z "},")":{"ha":538,"x_min":-139,"x_max":424,"o":"m 117 1057 l 300 1057 q 393 801 362 929 q 424 542 424 672 q 334 150 424 336 q 71 -193 245 -37 l -139 -193 q 122 182 33 -23 q 212 604 212 387 q 189 837 212 724 q 117 1057 165 949 z "},"*":{"ha":694,"x_min":97,"x_max":703,"o":"m 314 1040 l 486 1040 l 439 803 l 652 920 l 703 758 l 463 728 l 639 561 l 503 463 l 400 686 l 297 463 l 161 561 l 338 728 l 97 758 l 149 920 l 363 803 l 314 1040 z "},"+":{"ha":1157,"x_min":172,"x_max":985,"o":"m 498 828 l 660 828 l 660 493 l 985 493 l 985 336 l 660 336 l 660 0 l 498 0 l 498 336 l 172 336 l 172 493 l 498 493 l 498 828 z "},",":{"ha":428,"x_min":-74,"x_max":326,"o":"m 83 218 l 326 218 l 121 -151 l -74 -151 l 83 218 z "},"-":{"ha":460,"x_min":9,"x_max":421,"o":"m 47 492 l 421 492 l 383 317 l 9 317 l 47 492 z "},".":{"ha":428,"x_min":16,"x_max":293,"o":"m 62 222 l 293 222 l 245 0 l 16 0 l 62 222 z "},"/":{"ha":389,"x_min":-8,"x_max":404,"o":"m 268 1015 l 404 1015 l 127 0 l -8 0 l 268 1015 z "},":":{"ha":611,"x_min":93,"x_max":478,"o":"m 142 225 l 371 225 l 323 0 l 93 0 l 142 225 m 248 714 l 478 714 l 429 489 l 199 489 l 248 714 z "},";":{"ha":611,"x_min":7,"x_max":473,"o":"m 163 218 l 407 218 l 200 -151 l 7 -151 l 163 218 m 243 714 l 473 714 l 427 492 l 196 492 l 243 714 z "},"<":{"ha":1157,"x_min":179,"x_max":978,"o":"m 978 823 l 978 652 l 399 414 l 978 178 l 978 5 l 179 335 l 179 493 l 978 823 z "},"=":{"ha":1157,"x_min":172,"x_max":985,"o":"m 172 340 l 985 340 l 985 184 l 172 184 l 172 340 m 172 644 l 985 644 l 985 488 l 172 488 l 172 644 z "},">":{"ha":1157,"x_min":179,"x_max":978,"o":"m 179 823 l 978 493 l 978 335 l 179 5 l 179 178 l 758 414 l 179 652 l 179 823 z "},"?":{"ha":765,"x_min":131,"x_max":741,"o":"m 192 215 l 424 215 l 378 0 l 146 0 l 192 215 m 433 319 l 235 319 q 263 435 236 384 q 370 557 291 486 q 395 580 378 565 q 492 724 492 667 q 455 794 492 770 q 347 818 418 818 q 237 805 293 818 q 131 768 181 792 l 160 956 q 277 982 218 973 q 396 990 336 990 q 648 927 556 990 q 741 757 741 865 q 564 484 741 640 l 551 473 q 456 378 478 409 q 433 319 433 347 z "},"@":{"ha":1389,"x_min":56,"x_max":1335,"o":"m 787 178 q 702 96 749 122 q 587 71 654 71 q 420 130 477 71 q 363 304 363 189 q 459 578 363 468 q 696 689 555 689 q 787 668 748 689 q 851 606 825 648 l 886 668 l 1026 668 l 922 254 q 922 250 922 253 q 920 232 920 238 q 930 202 920 212 q 962 192 941 192 q 1125 289 1055 192 q 1196 517 1196 387 q 1074 781 1196 679 q 757 884 952 884 q 571 859 656 884 q 415 785 486 834 q 253 598 310 710 q 196 357 196 487 q 334 30 196 152 q 703 -92 471 -92 q 917 -59 814 -92 q 1107 35 1020 -27 l 1173 -57 q 949 -176 1067 -136 q 703 -215 832 -215 q 462 -182 572 -215 q 267 -83 352 -149 q 108 107 160 -1 q 56 353 56 216 q 92 570 56 467 q 197 758 127 673 q 441 947 298 882 q 758 1011 585 1011 q 975 980 873 1011 q 1152 890 1077 949 q 1289 726 1244 818 q 1335 518 1335 633 q 1290 310 1335 405 q 1161 147 1246 215 q 1057 89 1114 109 q 937 69 999 69 q 828 96 865 69 q 787 178 791 123 m 812 472 q 779 551 806 524 q 704 578 751 578 q 581 495 634 578 q 528 301 528 413 q 551 214 528 245 q 618 183 575 183 q 718 223 675 183 q 778 330 762 263 l 812 472 z "},"A":{"ha":1039,"x_min":-86,"x_max":958,"o":"m 612 775 l 399 387 l 659 387 l 612 775 m 484 964 l 803 964 l 958 0 l 703 0 l 677 205 l 300 205 l 184 0 l -86 0 l 484 964 z "},"B":{"ha":932,"x_min":-4,"x_max":897,"o":"m 334 419 l 282 176 l 397 176 q 538 212 489 176 q 587 315 587 248 q 555 393 587 368 q 458 419 523 419 l 334 419 m 414 799 l 368 578 l 457 578 q 596 611 546 578 q 646 701 646 644 q 614 772 646 746 q 529 799 583 799 l 414 799 m 201 964 l 566 964 q 694 958 646 964 q 771 939 742 952 q 864 862 831 911 q 897 750 897 813 q 827 583 897 651 q 644 504 758 514 q 785 434 734 487 q 835 306 835 382 q 804 174 835 235 q 714 72 772 114 q 587 17 660 34 q 385 0 515 0 l -4 0 l 201 964 z "},"C":{"ha":920,"x_min":50,"x_max":978,"o":"m 978 929 l 914 733 q 807 781 863 765 q 685 796 750 796 q 413 697 511 796 q 315 424 315 599 q 389 243 315 310 q 590 176 463 176 q 704 191 646 176 q 821 236 761 206 l 796 14 q 660 -13 726 -4 q 532 -22 594 -22 q 177 98 304 -22 q 50 431 50 218 q 90 643 50 541 q 200 818 130 745 q 393 946 285 905 q 650 986 501 986 q 808 972 727 986 q 978 929 890 958 z "},"D":{"ha":1074,"x_min":-7,"x_max":1021,"o":"m 421 778 l 296 191 l 404 191 q 548 210 490 191 q 648 272 606 229 q 729 396 701 324 q 758 546 758 469 q 696 717 758 656 q 518 778 633 778 l 421 778 m 197 964 l 518 964 q 897 859 772 964 q 1021 538 1021 753 q 978 308 1021 414 q 856 135 935 203 q 667 32 775 64 q 396 0 558 0 l -7 0 l 197 964 z "},"E":{"ha":839,"x_min":-11,"x_max":873,"o":"m 195 964 l 873 964 l 835 785 l 412 785 l 372 591 l 770 591 l 733 418 l 335 418 l 285 180 l 722 180 l 684 0 l -11 0 l 195 964 z "},"F":{"ha":785,"x_min":-9,"x_max":840,"o":"m 196 964 l 840 964 l 802 785 l 412 785 l 370 576 l 742 576 l 704 396 l 330 396 l 248 0 l -9 0 l 196 964 z "},"G":{"ha":1059,"x_min":53,"x_max":1011,"o":"m 1011 940 l 956 742 q 843 786 901 771 q 722 800 785 800 q 422 703 531 800 q 314 435 314 605 q 380 240 314 311 q 564 170 447 170 q 612 173 587 170 q 667 184 637 177 l 710 386 l 551 386 l 589 561 l 990 561 l 876 28 q 723 -8 804 4 q 545 -20 642 -20 q 182 100 311 -20 q 53 437 53 220 q 89 643 53 547 q 196 810 125 738 q 403 945 284 902 q 692 987 522 987 q 859 976 779 987 q 1011 940 938 964 z "},"H":{"ha":1010,"x_min":-9,"x_max":1019,"o":"m 195 964 l 457 964 l 380 602 l 679 602 l 757 964 l 1019 964 l 815 0 l 551 0 l 639 408 l 339 408 l 253 0 l -9 0 l 195 964 z "},"I":{"ha":460,"x_min":-5,"x_max":457,"o":"m 200 964 l 457 964 l 252 0 l -5 0 l 200 964 z "},"J":{"ha":611,"x_min":-78,"x_max":631,"o":"m 372 964 l 631 964 l 484 279 q 359 51 450 124 q 109 -22 268 -22 q 6 -14 52 -22 q -78 14 -39 -5 l -24 224 q 37 207 10 212 q 85 201 64 201 q 188 240 148 201 q 244 355 228 278 l 372 964 z "},"K":{"ha":961,"x_min":-9,"x_max":1046,"o":"m 196 964 l 452 964 l 368 568 l 721 964 l 1046 964 l 596 497 l 878 0 l 579 0 l 346 464 l 248 0 l -9 0 l 196 964 z "},"L":{"ha":785,"x_min":16,"x_max":714,"o":"m 221 964 l 481 964 l 315 192 l 714 192 l 672 0 l 16 0 l 221 964 z "},"M":{"ha":1311,"x_min":-16,"x_max":1324,"o":"m 191 964 l 590 964 l 611 474 q 612 441 612 458 q 612 397 612 424 q 611 346 612 375 q 608 281 610 317 q 641 373 621 324 q 686 478 660 421 l 909 964 l 1324 964 l 1116 0 l 878 0 l 999 582 q 1022 684 1008 630 q 1051 798 1035 737 l 1043 798 l 668 0 l 431 0 l 396 798 l 385 798 q 357 643 368 704 q 343 566 347 581 l 221 0 l -16 0 l 191 964 z "},"N":{"ha":1080,"x_min":-12,"x_max":1089,"o":"m 193 964 l 510 964 l 660 475 q 691 363 680 410 q 707 273 702 316 l 718 273 q 729 362 721 313 q 751 476 737 411 l 854 964 l 1089 964 l 884 0 l 567 0 l 403 539 q 383 614 391 576 q 371 694 375 652 l 361 694 q 347 594 354 642 q 330 504 339 546 l 224 0 l -12 0 l 193 964 z "},"O":{"ha":1080,"x_min":49,"x_max":1032,"o":"m 766 586 q 720 749 766 692 q 590 807 674 807 q 479 772 531 807 q 386 671 427 738 q 331 537 352 616 q 310 385 310 459 q 357 224 310 283 q 485 165 404 165 q 594 199 544 165 q 690 302 644 233 q 745 434 724 356 q 766 586 766 512 m 607 986 q 920 877 807 986 q 1032 572 1032 767 q 1000 368 1032 469 q 913 192 968 267 q 723 32 834 87 q 476 -24 611 -24 q 162 87 275 -24 q 49 395 49 198 q 77 593 49 498 q 157 760 105 689 q 351 930 239 873 q 607 986 463 986 z "},"P":{"ha":878,"x_min":-7,"x_max":878,"o":"m 416 790 l 363 532 l 431 532 q 575 570 524 532 q 627 676 627 608 q 588 761 627 732 q 476 790 549 790 l 416 790 m 197 964 l 482 964 q 782 900 686 964 q 878 703 878 837 q 767 442 878 537 q 463 347 656 347 q 405 348 439 347 q 326 351 370 349 l 249 0 l -7 0 l 197 964 z "},"Q":{"ha":1080,"x_min":49,"x_max":1032,"o":"m 710 24 l 890 -183 l 597 -183 l 490 -24 l 471 -24 q 163 87 277 -24 q 49 383 49 197 q 77 590 49 494 q 157 760 104 686 q 351 930 239 873 q 607 986 463 986 q 920 877 807 986 q 1032 572 1032 767 q 948 245 1032 389 q 710 24 864 102 m 766 586 q 720 749 766 692 q 590 807 674 807 q 479 772 531 807 q 386 671 427 738 q 331 537 352 616 q 310 385 310 459 q 357 224 310 283 q 485 165 404 165 q 594 199 544 165 q 690 302 644 233 q 745 434 724 356 q 766 586 766 512 z "},"R":{"ha":922,"x_min":-8,"x_max":905,"o":"m 408 787 l 363 562 l 454 562 q 593 595 544 562 q 642 688 642 628 q 608 762 642 737 q 509 787 574 787 l 408 787 m 196 964 l 559 964 q 819 904 732 964 q 905 725 905 844 q 836 555 905 618 q 640 481 767 491 q 701 424 680 456 q 736 328 723 391 l 807 0 l 554 0 l 486 310 q 451 367 477 351 q 371 383 426 383 l 325 383 l 244 0 l -8 0 l 196 964 z "},"S":{"ha":846,"x_min":-18,"x_max":833,"o":"m 833 942 l 774 754 q 667 790 721 778 q 555 802 612 802 q 424 776 469 802 q 378 703 378 751 q 481 608 378 650 q 546 579 522 591 q 709 465 666 521 q 753 323 753 410 q 632 72 753 165 q 304 -22 511 -22 q 137 -9 217 -22 q -18 31 56 4 l 37 229 q 154 184 98 199 q 265 170 211 170 q 421 202 364 170 q 478 290 478 235 q 327 420 478 360 q 268 444 289 435 q 146 535 186 479 q 106 671 106 591 q 218 898 106 810 q 511 985 330 985 q 694 974 612 985 q 833 942 776 963 z "},"T":{"ha":781,"x_min":83,"x_max":868,"o":"m 122 964 l 868 964 l 828 778 l 582 778 l 416 0 l 157 0 l 322 778 l 83 778 l 122 964 z "},"U":{"ha":1022,"x_min":62,"x_max":1023,"o":"m 193 964 l 452 964 l 335 427 q 323 357 327 391 q 319 290 319 323 q 359 199 319 236 q 456 161 398 161 q 578 221 533 161 q 659 436 624 281 l 775 964 l 1023 964 l 900 364 q 748 68 858 161 q 440 -25 638 -25 q 160 59 258 -25 q 62 298 62 142 q 66 367 62 334 q 77 429 69 399 l 193 964 z "},"V":{"ha":978,"x_min":93,"x_max":1064,"o":"m 93 964 l 347 964 l 403 443 q 409 369 407 406 q 411 297 411 332 q 410 247 411 272 q 407 197 409 222 l 414 197 q 449 297 427 245 q 501 407 471 349 l 793 964 l 1064 964 l 529 0 l 220 0 l 93 964 z "},"W":{"ha":1372,"x_min":109,"x_max":1446,"o":"m 109 964 l 350 964 l 345 533 q 338 403 345 491 q 321 196 332 315 l 330 196 q 368 318 350 262 q 399 411 385 374 l 616 964 l 932 964 l 925 438 q 921 303 924 361 q 914 196 918 245 l 924 196 q 952 297 935 243 q 999 432 970 351 l 1192 964 l 1446 964 l 1039 0 l 724 0 l 732 509 q 736 655 733 586 q 745 786 739 724 l 733 786 q 693 664 712 719 q 656 559 675 610 l 444 0 l 123 0 l 109 964 z "},"X":{"ha":961,"x_min":-100,"x_max":1036,"o":"m 127 964 l 401 964 l 464 786 q 466 781 465 785 q 501 663 486 720 l 734 964 l 1036 964 l 657 511 l 867 0 l 593 0 l 507 233 q 490 287 500 256 q 471 353 481 317 l 214 0 l -100 0 l 321 521 l 127 964 z "},"Y":{"ha":939,"x_min":65,"x_max":1038,"o":"m 65 964 l 346 964 l 436 684 q 447 643 437 680 q 464 574 456 606 q 506 643 487 612 q 534 686 525 673 l 737 964 l 1038 964 l 561 364 l 484 0 l 228 0 l 300 364 l 65 964 z "},"Z":{"ha":868,"x_min":-37,"x_max":926,"o":"m 183 964 l 926 964 l 880 770 l 286 186 l 760 186 l 714 0 l -37 0 l 8 225 l 568 781 l 144 781 l 183 964 z "},"[":{"ha":611,"x_min":22,"x_max":647,"o":"m 286 1060 l 647 1060 l 615 908 l 460 908 l 260 -35 l 414 -35 l 383 -183 l 22 -183 l 286 1060 z "},"\\":{"ha":389,"x_min":4,"x_max":375,"o":"m 4 1015 l 140 1015 l 375 0 l 239 0 l 4 1015 z "},"]":{"ha":611,"x_min":-57,"x_max":568,"o":"m 207 1060 l 568 1060 l 304 -183 l -57 -183 l -25 -32 l 129 -32 l 329 911 l 175 911 l 207 1060 z "},"^":{"ha":1389,"x_min":281,"x_max":1107,"o":"m 596 991 l 791 991 l 1107 610 l 928 610 l 694 842 l 460 610 l 281 610 l 596 991 z "},"_":{"ha":694,"x_min":0,"x_max":694,"o":"m 0 -165 l 694 -165 l 694 -328 l 0 -328 l 0 -165 z "},"`":{"ha":694,"x_min":239,"x_max":534,"o":"m 239 1060 l 422 1060 l 534 808 l 439 808 l 239 1060 z "},"a":{"ha":848,"x_min":7,"x_max":772,"o":"m 514 326 q 486 328 500 328 q 443 329 471 329 q 292 301 344 329 q 240 218 240 273 q 266 160 240 182 q 332 138 291 138 q 451 189 400 138 q 514 326 501 241 m 757 383 l 715 180 q 695 78 702 118 q 686 0 689 38 l 479 0 l 493 109 q 389 16 452 47 q 245 -16 327 -16 q 72 43 137 -16 q 7 197 7 101 q 117 389 7 320 q 428 457 228 457 q 480 455 452 457 q 543 450 509 454 q 544 459 544 454 q 545 473 545 465 q 509 556 545 528 q 407 585 474 585 q 286 571 345 585 q 174 530 228 557 l 203 697 q 320 729 262 718 q 440 739 379 739 q 685 679 597 739 q 772 511 772 618 q 768 454 772 487 q 757 383 764 422 z "},"b":{"ha":951,"x_min":3,"x_max":892,"o":"m 636 406 q 603 510 636 471 q 513 549 569 549 q 381 479 437 549 q 325 315 325 410 q 361 205 325 246 q 457 164 397 164 q 584 235 531 164 q 636 406 636 305 m 221 1042 l 468 1042 l 376 624 q 486 707 427 680 q 614 734 545 734 q 817 648 741 734 q 892 415 892 562 q 787 101 892 222 q 514 -20 682 -20 q 367 21 429 -20 q 262 144 304 62 l 228 0 l 3 0 l 221 1042 z "},"c":{"ha":692,"x_min":18,"x_max":710,"o":"m 710 688 l 653 515 q 575 543 613 534 q 500 553 536 553 q 340 496 401 553 q 279 347 279 439 q 329 219 279 267 q 464 172 379 172 q 533 180 498 172 q 606 205 568 189 l 576 17 q 469 -5 519 2 q 372 -12 418 -12 q 114 78 210 -12 q 18 319 18 169 q 142 620 18 506 q 471 734 267 734 q 591 723 532 734 q 710 688 651 711 z "},"d":{"ha":951,"x_min":29,"x_max":986,"o":"m 597 403 q 560 508 597 468 q 464 549 523 549 q 337 478 389 549 q 285 302 285 407 q 319 202 285 241 q 408 164 353 164 q 542 234 486 164 q 597 403 597 304 m 741 1042 l 986 1042 l 765 0 l 543 0 l 570 119 q 452 15 517 50 q 309 -21 386 -21 q 105 65 180 -21 q 29 297 29 151 q 135 612 29 490 q 408 733 240 733 q 547 697 487 733 q 643 593 607 662 l 741 1042 z "},"e":{"ha":848,"x_min":28,"x_max":781,"o":"m 764 293 l 252 293 q 303 177 258 214 q 435 139 348 139 q 556 153 494 139 q 677 193 618 167 l 650 17 q 519 -14 586 -3 q 386 -24 453 -24 q 124 66 220 -24 q 28 311 28 157 q 62 483 28 398 q 155 625 97 567 q 293 709 212 681 q 473 737 373 737 q 701 657 621 737 q 781 429 781 577 q 777 365 781 399 q 764 293 772 330 m 573 431 q 576 451 575 444 q 576 464 576 458 q 543 558 576 524 q 452 593 509 593 q 349 550 393 593 q 283 431 304 507 l 573 431 z "},"f":{"ha":614,"x_min":37,"x_max":717,"o":"m 717 1028 l 669 868 q 631 882 648 878 q 597 886 614 886 q 530 865 559 886 q 493 808 501 843 l 469 714 l 650 714 l 614 541 l 432 541 l 318 0 l 71 0 l 186 541 l 37 541 l 75 714 l 222 714 l 248 827 q 352 997 273 938 q 558 1055 432 1055 q 636 1048 597 1055 q 717 1028 676 1042 z "},"g":{"ha":951,"x_min":32,"x_max":917,"o":"m 597 403 q 560 508 597 468 q 464 549 523 549 q 337 478 389 549 q 285 302 285 407 q 319 202 285 241 q 408 164 353 164 q 542 234 486 164 q 597 403 597 304 m 669 714 l 917 714 l 765 1 q 624 -232 733 -155 q 328 -309 515 -309 q 189 -296 259 -309 q 47 -258 119 -283 l 93 -74 q 196 -119 140 -104 q 317 -135 252 -135 q 494 -68 433 -135 q 576 144 556 -2 q 455 36 522 72 q 310 0 389 0 q 107 85 183 0 q 32 313 32 170 q 53 458 32 389 q 114 583 73 526 q 240 695 165 656 q 408 733 316 733 q 547 697 487 733 q 643 593 607 662 l 669 714 z "},"h":{"ha":932,"x_min":-7,"x_max":847,"o":"m 214 1042 l 463 1042 l 375 627 q 488 706 429 680 q 614 732 547 732 q 786 666 725 732 q 847 482 847 601 q 841 397 847 446 q 821 285 834 347 l 761 0 l 511 0 l 587 358 q 594 396 591 378 q 596 429 596 414 q 572 507 596 479 q 505 534 548 534 q 381 476 431 534 q 307 301 332 418 l 243 0 l -7 0 l 214 1042 z "},"i":{"ha":460,"x_min":16,"x_max":475,"o":"m 167 714 l 410 714 l 258 0 l 16 0 l 167 714 m 231 1015 l 475 1015 l 436 835 l 193 835 l 231 1015 z "},"j":{"ha":460,"x_min":-179,"x_max":486,"o":"m 171 714 l 424 714 l 271 -8 q 166 -231 239 -163 q -35 -300 94 -300 q -101 -293 -66 -300 q -179 -273 -136 -287 l -147 -123 q -113 -132 -130 -128 q -82 -135 -96 -135 q -21 -108 -45 -135 q 14 -26 3 -81 l 171 714 m 233 1015 l 486 1015 l 449 832 l 196 832 l 233 1015 z "},"k":{"ha":839,"x_min":4,"x_max":867,"o":"m 225 1042 l 472 1042 l 339 416 l 586 714 l 867 714 l 572 382 l 753 0 l 482 0 l 329 372 l 252 0 l 4 0 l 225 1042 z "},"l":{"ha":460,"x_min":4,"x_max":472,"o":"m 225 1042 l 472 1042 l 252 0 l 4 0 l 225 1042 z "},"m":{"ha":1328,"x_min":-17,"x_max":1242,"o":"m 1232 410 l 1143 0 l 905 0 l 981 359 q 990 409 987 387 q 993 447 993 431 q 973 509 993 486 q 918 532 953 532 q 865 519 890 532 q 822 484 841 507 q 768 334 787 439 q 761 301 764 313 l 697 0 l 444 0 l 521 358 q 529 408 526 383 q 532 456 532 432 q 512 512 532 492 q 457 532 493 532 q 367 489 401 532 q 313 355 332 447 l 236 0 l -17 0 l 136 721 l 350 721 l 322 590 q 444 698 384 664 q 572 732 504 732 q 697 697 648 732 q 768 591 746 662 q 889 699 829 667 q 1023 732 949 732 q 1183 671 1124 732 q 1242 507 1242 611 q 1239 459 1242 483 q 1232 410 1237 435 z "},"n":{"ha":932,"x_min":-11,"x_max":843,"o":"m 817 285 l 755 0 l 507 0 l 582 358 q 588 396 586 378 q 590 429 590 414 q 566 507 590 479 q 500 534 543 534 q 377 476 426 534 q 302 301 328 418 l 239 0 l -11 0 l 142 721 l 366 721 l 338 593 q 467 697 398 662 q 610 732 535 732 q 782 666 721 732 q 843 482 843 601 q 837 397 843 446 q 817 285 830 347 z "},"o":{"ha":926,"x_min":28,"x_max":857,"o":"m 606 408 q 569 526 606 482 q 472 570 533 570 q 337 494 393 570 q 281 309 281 418 q 319 192 281 237 q 418 147 357 147 q 551 222 496 147 q 606 408 606 298 m 486 733 q 758 644 659 733 q 857 397 857 554 q 730 94 857 210 q 395 -21 604 -21 q 126 66 224 -21 q 28 306 28 154 q 152 617 28 501 q 486 733 275 733 z "},"p":{"ha":951,"x_min":-60,"x_max":892,"o":"m 278 119 l 191 -290 l -60 -290 l 155 721 l 379 721 l 351 595 q 469 699 404 664 q 612 734 535 734 q 816 648 741 734 q 892 415 892 562 q 787 101 892 222 q 514 -20 682 -20 q 375 16 435 -20 q 278 119 314 52 m 636 406 q 603 510 636 471 q 513 549 569 549 q 381 479 437 549 q 325 315 325 410 q 361 205 325 246 q 457 164 397 164 q 584 235 531 164 q 636 406 636 305 z "},"q":{"ha":951,"x_min":28,"x_max":918,"o":"m 596 403 q 559 509 596 468 q 463 550 522 550 q 337 479 389 550 q 285 304 285 408 q 318 203 285 241 q 407 165 352 165 q 540 235 484 165 q 596 403 596 304 m 692 714 l 918 714 l 707 -289 l 461 -289 l 545 90 q 436 6 494 34 q 307 -21 377 -21 q 103 65 179 -21 q 28 297 28 151 q 133 612 28 490 q 407 733 239 733 q 554 692 492 733 q 659 570 616 652 l 692 714 z "},"r":{"ha":631,"x_min":-3,"x_max":673,"o":"m 673 718 l 618 510 q 556 524 583 519 q 510 529 530 529 q 386 479 431 529 q 314 309 341 430 l 248 0 l -3 0 l 143 717 l 370 717 l 343 586 q 453 699 397 664 q 579 733 509 733 q 624 729 601 733 q 673 718 647 726 z "},"s":{"ha":694,"x_min":-20,"x_max":664,"o":"m 664 692 l 610 534 q 499 566 542 557 q 421 575 457 575 q 339 557 369 575 q 310 510 310 540 q 399 439 310 471 q 457 416 436 425 q 568 342 533 385 q 603 240 603 300 q 511 52 603 123 q 265 -20 419 -20 q 118 -8 189 -20 q -20 26 47 3 l 32 199 q 132 162 82 174 q 232 150 181 150 q 325 166 292 150 q 357 214 357 183 q 273 291 357 258 q 253 298 260 296 q 111 385 149 341 q 74 500 74 429 q 167 669 74 604 q 412 734 260 734 q 532 724 470 734 q 664 692 595 713 z "},"t":{"ha":614,"x_min":21,"x_max":625,"o":"m 500 953 l 449 714 l 625 714 l 589 543 l 412 543 l 359 294 q 352 257 355 273 q 350 232 350 241 q 368 175 350 193 q 428 158 387 158 q 465 162 444 158 q 510 172 486 165 l 473 1 q 394 -10 428 -6 q 336 -14 361 -14 q 164 43 224 -14 q 103 203 103 100 q 105 238 103 220 q 110 274 106 255 l 167 543 l 21 543 l 57 714 l 203 714 l 239 884 l 500 953 z "},"u":{"ha":932,"x_min":41,"x_max":896,"o":"m 127 714 l 378 714 l 302 355 q 296 319 298 337 q 294 285 294 301 q 319 205 294 233 q 389 178 343 178 q 508 238 458 178 q 582 412 557 298 l 646 714 l 896 714 l 743 0 l 519 0 l 547 121 q 418 17 486 52 q 275 -18 350 -18 q 102 47 163 -18 q 41 231 41 112 q 48 318 41 267 q 68 429 55 368 l 127 714 z "},"v":{"ha":842,"x_min":52,"x_max":869,"o":"m 52 714 l 298 714 l 354 200 l 608 714 l 869 714 l 450 0 l 171 0 l 52 714 z "},"w":{"ha":1301,"x_min":58,"x_max":1336,"o":"m 58 714 l 302 714 l 310 371 q 310 284 310 332 q 309 183 309 237 q 379 353 328 248 l 383 361 l 553 714 l 846 714 l 854 353 l 854 183 q 883 268 865 223 q 926 368 901 313 l 1089 714 l 1336 714 l 960 0 l 676 0 l 664 321 q 662 404 662 376 q 661 456 661 431 q 662 507 661 490 q 663 538 662 525 q 624 443 641 484 q 596 379 607 402 l 416 0 l 126 0 l 58 714 z "},"x":{"ha":842,"x_min":-79,"x_max":868,"o":"m 83 714 l 349 714 l 425 504 l 583 714 l 868 714 l 568 371 l 730 0 l 467 0 l 382 225 l 218 0 l -79 0 l 236 380 l 83 714 z "},"y":{"ha":842,"x_min":-114,"x_max":869,"o":"m 49 714 l 297 714 l 340 427 l 340 424 q 363 233 357 313 q 399 318 382 279 q 432 385 417 357 l 610 714 l 869 714 l 411 -72 q 260 -255 333 -205 q 77 -304 186 -304 q -11 -295 36 -304 q -114 -268 -58 -286 l -56 -94 q -1 -113 -27 -107 q 49 -119 24 -119 q 145 -91 105 -119 q 208 -5 185 -62 l 49 714 z "},"z":{"ha":726,"x_min":-41,"x_max":725,"o":"m 123 714 l 725 714 l 685 524 l 301 180 l 625 180 l 586 0 l -41 0 l -1 191 l 382 538 l 86 538 l 123 714 z "},"{":{"ha":694,"x_min":103,"x_max":606,"o":"m 606 1002 l 606 838 q 591 838 601 838 q 578 839 582 839 q 488 815 511 839 q 465 715 465 791 l 465 553 q 434 417 465 458 q 322 359 403 376 q 434 303 404 343 q 465 168 465 264 l 465 4 q 488 -94 465 -71 q 576 -118 511 -118 q 591 -117 581 -118 q 606 -117 601 -117 l 606 -281 q 577 -281 595 -281 q 550 -282 559 -282 q 428 -274 477 -282 q 347 -249 380 -266 q 291 -189 307 -227 q 275 -58 275 -151 l 275 115 q 242 242 275 205 q 127 279 208 279 q 116 279 125 279 q 103 278 107 278 l 103 441 q 115 441 107 441 q 127 440 123 440 q 241 478 208 440 q 275 606 275 515 l 275 778 q 292 909 275 870 q 347 970 308 948 q 429 995 380 987 q 551 1003 478 1003 q 577 1002 559 1003 q 606 1002 595 1002 z "},"|":{"ha":694,"x_min":267,"x_max":429,"o":"m 267 1061 l 429 1061 l 429 -328 l 267 -328 l 267 1061 z "},"}":{"ha":694,"x_min":90,"x_max":593,"o":"m 90 1002 q 118 1002 100 1002 q 144 1003 136 1003 q 267 995 218 1003 q 349 970 315 987 q 405 909 388 948 q 421 778 421 870 l 421 606 q 454 477 421 515 q 568 440 488 440 q 581 441 572 440 q 593 441 589 441 l 593 278 q 581 279 589 278 q 568 279 572 279 q 454 242 488 279 q 421 115 421 205 l 421 -58 q 405 -190 421 -151 q 349 -250 388 -229 q 272 -274 318 -267 q 151 -282 225 -282 q 121 -281 142 -282 q 90 -281 101 -281 l 90 -117 q 106 -117 96 -117 q 119 -118 115 -118 q 208 -95 185 -118 q 231 4 231 -71 l 231 168 q 262 303 231 263 q 374 359 293 343 q 261 416 292 376 q 231 553 231 456 l 231 715 q 208 815 231 791 q 122 839 185 839 q 107 838 117 839 q 90 838 96 838 l 90 1002 z "},"~":{"ha":1157,"x_min":121,"x_max":1038,"o":"m 1038 555 l 1038 383 q 906 313 969 336 q 782 290 843 290 q 722 295 751 290 q 665 310 692 300 q 640 319 656 313 q 380 379 467 379 q 261 354 323 379 q 121 272 199 328 l 121 444 q 261 518 197 494 q 383 542 326 542 q 469 534 426 542 q 584 503 512 526 q 618 491 595 499 q 786 453 726 453 q 904 477 843 453 q 1038 555 964 502 z "},"Ä":{"ha":1039,"x_min":-86,"x_max":958,"o":"m 612 775 l 399 387 l 659 387 l 612 775 m 484 964 l 803 964 l 958 0 l 703 0 l 677 205 l 300 205 l 184 0 l -86 0 l 484 964 m 722 1276 l 891 1276 l 852 1093 l 683 1093 l 722 1276 m 476 1276 l 646 1276 l 607 1093 l 437 1093 l 476 1276 z "},"Å":{"ha":1039,"x_min":-86,"x_max":958,"o":"m 612 775 l 399 387 l 659 387 l 612 775 m 484 964 l 803 964 l 958 0 l 703 0 l 677 205 l 300 205 l 184 0 l -86 0 l 484 964 m 646 1293 q 586 1270 610 1293 q 562 1210 562 1246 q 586 1151 562 1175 q 646 1126 610 1126 q 704 1151 681 1126 q 728 1210 728 1175 q 704 1269 728 1245 q 646 1293 680 1293 m 644 1394 q 775 1341 722 1394 q 829 1211 829 1287 q 776 1080 829 1134 q 644 1026 722 1026 q 514 1080 567 1026 q 461 1211 461 1133 q 514 1341 461 1289 q 644 1394 568 1394 z "},"Ç":{"ha":920,"x_min":50,"x_max":978,"o":"m 978 929 l 914 733 q 807 781 863 765 q 685 796 750 796 q 413 697 511 796 q 315 424 315 599 q 389 243 315 310 q 590 176 463 176 q 704 191 646 176 q 821 236 761 206 l 796 14 q 660 -13 726 -4 q 532 -22 594 -22 q 177 98 304 -22 q 50 431 50 218 q 90 643 50 541 q 200 818 130 745 q 393 946 285 905 q 650 986 501 986 q 808 972 727 986 q 978 929 890 958 m 443 0 l 521 0 l 498 -62 q 616 -94 576 -64 q 656 -180 656 -123 q 607 -297 656 -256 q 468 -338 558 -338 q 384 -328 433 -338 q 268 -297 335 -318 l 302 -207 q 387 -234 346 -224 q 462 -243 427 -243 q 510 -229 492 -243 q 528 -192 528 -216 q 503 -156 528 -167 q 420 -146 479 -146 l 393 -146 l 443 0 z "},"É":{"ha":839,"x_min":-11,"x_max":873,"o":"m 195 964 l 873 964 l 835 785 l 412 785 l 372 591 l 770 591 l 733 418 l 335 418 l 285 180 l 722 180 l 684 0 l -11 0 l 195 964 m 568 1312 l 779 1312 l 514 1060 l 411 1060 l 568 1312 z "},"Ñ":{"ha":1080,"x_min":-12,"x_max":1089,"o":"m 193 964 l 510 964 l 660 475 q 691 363 680 410 q 707 273 702 316 l 718 273 q 729 362 721 313 q 751 476 737 411 l 854 964 l 1089 964 l 884 0 l 567 0 l 403 539 q 383 614 391 576 q 371 694 375 652 l 361 694 q 347 594 354 642 q 330 504 339 546 l 224 0 l -12 0 l 193 964 m 832 1289 l 912 1289 q 852 1157 890 1199 q 754 1116 814 1116 q 724 1118 739 1116 q 694 1125 709 1120 l 651 1139 q 629 1145 640 1143 q 608 1147 618 1147 q 565 1131 583 1147 q 541 1082 547 1114 l 458 1082 q 519 1216 479 1171 q 618 1260 559 1260 q 648 1257 631 1260 q 682 1249 665 1254 l 725 1235 q 746 1229 736 1231 q 764 1227 755 1227 q 805 1242 789 1227 q 832 1289 821 1257 z "},"Ö":{"ha":1080,"x_min":49,"x_max":1032,"o":"m 766 586 q 720 749 766 692 q 590 807 674 807 q 479 772 531 807 q 386 671 427 738 q 331 537 352 616 q 310 385 310 459 q 357 224 310 283 q 485 165 404 165 q 594 199 544 165 q 690 302 644 233 q 745 434 724 356 q 766 586 766 512 m 607 986 q 920 877 807 986 q 1032 572 1032 767 q 1000 368 1032 469 q 913 192 968 267 q 723 32 834 87 q 476 -24 611 -24 q 162 87 275 -24 q 49 395 49 198 q 77 593 49 498 q 157 760 105 689 q 351 930 239 873 q 607 986 463 986 m 743 1276 l 912 1276 l 873 1093 l 704 1093 l 743 1276 m 497 1276 l 667 1276 l 628 1093 l 458 1093 l 497 1276 z "},"Ü":{"ha":1022,"x_min":62,"x_max":1023,"o":"m 193 964 l 452 964 l 335 427 q 323 357 327 391 q 319 290 319 323 q 359 199 319 236 q 456 161 398 161 q 578 221 533 161 q 659 436 624 281 l 775 964 l 1023 964 l 900 364 q 748 68 858 161 q 440 -25 638 -25 q 160 59 258 -25 q 62 298 62 142 q 66 367 62 334 q 77 429 69 399 l 193 964 m 714 1276 l 883 1276 l 844 1093 l 675 1093 l 714 1276 m 468 1276 l 637 1276 l 599 1093 l 429 1093 l 468 1276 z "},"á":{"ha":848,"x_min":7,"x_max":772,"o":"m 514 326 q 486 328 500 328 q 443 329 471 329 q 292 301 344 329 q 240 218 240 273 q 266 160 240 182 q 332 138 291 138 q 451 189 400 138 q 514 326 501 241 m 757 383 l 715 180 q 695 78 702 118 q 686 0 689 38 l 479 0 l 493 109 q 389 16 452 47 q 245 -16 327 -16 q 72 43 137 -16 q 7 197 7 101 q 117 389 7 320 q 428 457 228 457 q 480 455 452 457 q 543 450 509 454 q 544 459 544 454 q 545 473 545 465 q 509 556 545 528 q 407 585 474 585 q 286 571 345 585 q 174 530 228 557 l 203 697 q 320 729 262 718 q 440 739 379 739 q 685 679 597 739 q 772 511 772 618 q 768 454 772 487 q 757 383 764 422 m 531 1060 l 742 1060 l 477 808 l 374 808 l 531 1060 z "},"à":{"ha":848,"x_min":7,"x_max":772,"o":"m 514 326 q 486 328 500 328 q 443 329 471 329 q 292 301 344 329 q 240 218 240 273 q 266 160 240 182 q 332 138 291 138 q 451 189 400 138 q 514 326 501 241 m 757 383 l 715 180 q 695 78 702 118 q 686 0 689 38 l 479 0 l 493 109 q 389 16 452 47 q 245 -16 327 -16 q 72 43 137 -16 q 7 197 7 101 q 117 389 7 320 q 428 457 228 457 q 480 455 452 457 q 543 450 509 454 q 544 459 544 454 q 545 473 545 465 q 509 556 545 528 q 407 585 474 585 q 286 571 345 585 q 174 530 228 557 l 203 697 q 320 729 262 718 q 440 739 379 739 q 685 679 597 739 q 772 511 772 618 q 768 454 772 487 q 757 383 764 422 m 317 1060 l 500 1060 l 612 808 l 517 808 l 317 1060 z "},"â":{"ha":848,"x_min":7,"x_max":772,"o":"m 514 326 q 486 328 500 328 q 443 329 471 329 q 292 301 344 329 q 240 218 240 273 q 266 160 240 182 q 332 138 291 138 q 451 189 400 138 q 514 326 501 241 m 757 383 l 715 180 q 695 78 702 118 q 686 0 689 38 l 479 0 l 493 109 q 389 16 452 47 q 245 -16 327 -16 q 72 43 137 -16 q 7 197 7 101 q 117 389 7 320 q 428 457 228 457 q 480 455 452 457 q 543 450 509 454 q 544 459 544 454 q 545 473 545 465 q 509 556 545 528 q 407 585 474 585 q 286 571 345 585 q 174 530 228 557 l 203 697 q 320 729 262 718 q 440 739 379 739 q 685 679 597 739 q 772 511 772 618 q 768 454 772 487 q 757 383 764 422 m 454 1060 l 627 1060 l 711 808 l 616 808 l 531 943 l 380 808 l 277 808 l 454 1060 z "},"ä":{"ha":848,"x_min":7,"x_max":772,"o":"m 514 326 q 486 328 500 328 q 443 329 471 329 q 292 301 344 329 q 240 218 240 273 q 266 160 240 182 q 332 138 291 138 q 451 189 400 138 q 514 326 501 241 m 757 383 l 715 180 q 695 78 702 118 q 686 0 689 38 l 479 0 l 493 109 q 389 16 452 47 q 245 -16 327 -16 q 72 43 137 -16 q 7 197 7 101 q 117 389 7 320 q 428 457 228 457 q 480 455 452 457 q 543 450 509 454 q 544 459 544 454 q 545 473 545 465 q 509 556 545 528 q 407 585 474 585 q 286 571 345 585 q 174 530 228 557 l 203 697 q 320 729 262 718 q 440 739 379 739 q 685 679 597 739 q 772 511 772 618 q 768 454 772 487 q 757 383 764 422 m 585 1025 l 754 1025 l 715 842 l 546 842 l 585 1025 m 339 1025 l 509 1025 l 470 842 l 300 842 l 339 1025 z "},"ã":{"ha":848,"x_min":7,"x_max":772,"o":"m 514 326 q 486 328 500 328 q 443 329 471 329 q 292 301 344 329 q 240 218 240 273 q 266 160 240 182 q 332 138 291 138 q 451 189 400 138 q 514 326 501 241 m 757 383 l 715 180 q 695 78 702 118 q 686 0 689 38 l 479 0 l 493 109 q 389 16 452 47 q 245 -16 327 -16 q 72 43 137 -16 q 7 197 7 101 q 117 389 7 320 q 428 457 228 457 q 480 455 452 457 q 543 450 509 454 q 544 459 544 454 q 545 473 545 465 q 509 556 545 528 q 407 585 474 585 q 286 571 345 585 q 174 530 228 557 l 203 697 q 320 729 262 718 q 440 739 379 739 q 685 679 597 739 q 772 511 772 618 q 768 454 772 487 q 757 383 764 422 m 674 1038 l 754 1038 q 694 906 732 947 q 596 864 656 864 q 566 866 581 864 q 536 873 551 869 l 493 888 q 471 894 481 892 q 450 896 460 896 q 407 879 425 896 q 382 831 389 862 l 300 831 q 361 964 321 920 q 460 1008 401 1008 q 490 1005 473 1008 q 524 997 507 1002 l 567 983 q 588 977 578 979 q 606 975 597 975 q 647 990 631 975 q 674 1038 663 1005 z "},"å":{"ha":848,"x_min":7,"x_max":772,"o":"m 514 326 q 486 328 500 328 q 443 329 471 329 q 292 301 344 329 q 240 218 240 273 q 266 160 240 182 q 332 138 291 138 q 451 189 400 138 q 514 326 501 241 m 757 383 l 715 180 q 695 78 702 118 q 686 0 689 38 l 479 0 l 493 109 q 389 16 452 47 q 245 -16 327 -16 q 72 43 137 -16 q 7 197 7 101 q 117 389 7 320 q 428 457 228 457 q 480 455 452 457 q 543 450 509 454 q 544 459 544 454 q 545 473 545 465 q 509 556 545 528 q 407 585 474 585 q 286 571 345 585 q 174 530 228 557 l 203 697 q 320 729 262 718 q 440 739 379 739 q 685 679 597 739 q 772 511 772 618 q 768 454 772 487 q 757 383 764 422 m 510 1082 q 450 1058 474 1082 q 427 997 427 1034 q 450 939 427 962 q 510 916 474 916 q 569 939 545 916 q 593 997 593 963 q 569 1057 593 1032 q 510 1082 545 1082 m 510 1182 q 641 1128 587 1182 q 694 999 694 1075 q 641 868 694 922 q 510 815 588 815 q 378 868 432 815 q 325 999 325 921 q 379 1129 325 1076 q 510 1182 433 1182 z "},"ç":{"ha":692,"x_min":18,"x_max":710,"o":"m 710 688 l 653 515 q 575 543 613 534 q 500 553 536 553 q 340 496 401 553 q 279 347 279 439 q 329 219 279 267 q 464 172 379 172 q 533 180 498 172 q 606 205 568 189 l 576 17 q 469 -5 519 2 q 372 -12 418 -12 q 114 78 210 -12 q 18 319 18 169 q 142 620 18 506 q 471 734 267 734 q 591 723 532 734 q 710 688 651 711 m 306 0 l 384 0 l 361 -62 q 479 -94 439 -64 q 519 -180 519 -123 q 470 -297 519 -256 q 331 -338 421 -338 q 247 -328 296 -338 q 131 -297 198 -318 l 165 -207 q 250 -234 209 -224 q 325 -243 290 -243 q 373 -229 355 -243 q 391 -192 391 -216 q 366 -156 391 -167 q 283 -146 342 -146 l 256 -146 l 306 0 z "},"é":{"ha":848,"x_min":28,"x_max":781,"o":"m 764 293 l 252 293 q 303 177 258 214 q 435 139 348 139 q 556 153 494 139 q 677 193 618 167 l 650 17 q 519 -14 586 -3 q 386 -24 453 -24 q 124 66 220 -24 q 28 311 28 157 q 62 483 28 398 q 155 625 97 567 q 293 709 212 681 q 473 737 373 737 q 701 657 621 737 q 781 429 781 577 q 777 365 781 399 q 764 293 772 330 m 573 431 q 576 451 575 444 q 576 464 576 458 q 543 558 576 524 q 452 593 509 593 q 349 550 393 593 q 283 431 304 507 l 573 431 m 531 1060 l 742 1060 l 477 808 l 374 808 l 531 1060 z "},"è":{"ha":848,"x_min":28,"x_max":781,"o":"m 764 293 l 252 293 q 303 177 258 214 q 435 139 348 139 q 556 153 494 139 q 677 193 618 167 l 650 17 q 519 -14 586 -3 q 386 -24 453 -24 q 124 66 220 -24 q 28 311 28 157 q 62 483 28 398 q 155 625 97 567 q 293 709 212 681 q 473 737 373 737 q 701 657 621 737 q 781 429 781 577 q 777 365 781 399 q 764 293 772 330 m 573 431 q 576 451 575 444 q 576 464 576 458 q 543 558 576 524 q 452 593 509 593 q 349 550 393 593 q 283 431 304 507 l 573 431 m 317 1060 l 500 1060 l 612 808 l 517 808 l 317 1060 z "},"ê":{"ha":848,"x_min":28,"x_max":781,"o":"m 764 293 l 252 293 q 303 177 258 214 q 435 139 348 139 q 556 153 494 139 q 677 193 618 167 l 650 17 q 519 -14 586 -3 q 386 -24 453 -24 q 124 66 220 -24 q 28 311 28 157 q 62 483 28 398 q 155 625 97 567 q 293 709 212 681 q 473 737 373 737 q 701 657 621 737 q 781 429 781 577 q 777 365 781 399 q 764 293 772 330 m 573 431 q 576 451 575 444 q 576 464 576 458 q 543 558 576 524 q 452 593 509 593 q 349 550 393 593 q 283 431 304 507 l 573 431 m 454 1060 l 627 1060 l 711 808 l 616 808 l 531 943 l 380 808 l 277 808 l 454 1060 z "},"ë":{"ha":848,"x_min":28,"x_max":781,"o":"m 764 293 l 252 293 q 303 177 258 214 q 435 139 348 139 q 556 153 494 139 q 677 193 618 167 l 650 17 q 519 -14 586 -3 q 386 -24 453 -24 q 124 66 220 -24 q 28 311 28 157 q 62 483 28 398 q 155 625 97 567 q 293 709 212 681 q 473 737 373 737 q 701 657 621 737 q 781 429 781 577 q 777 365 781 399 q 764 293 772 330 m 573 431 q 576 451 575 444 q 576 464 576 458 q 543 558 576 524 q 452 593 509 593 q 349 550 393 593 q 283 431 304 507 l 573 431 m 585 1025 l 754 1025 l 715 842 l 546 842 l 585 1025 m 339 1025 l 509 1025 l 470 842 l 300 842 l 339 1025 z "},"í":{"ha":460,"x_min":16,"x_max":547,"o":"m 167 714 l 410 714 l 258 0 l 16 0 l 167 714 m 336 1060 l 547 1060 l 282 808 l 179 808 l 336 1060 z "},"ì":{"ha":460,"x_min":16,"x_max":418,"o":"m 167 714 l 410 714 l 258 0 l 16 0 l 167 714 m 122 1060 l 306 1060 l 418 808 l 322 808 l 122 1060 z "},"î":{"ha":460,"x_min":16,"x_max":517,"o":"m 167 714 l 410 714 l 258 0 l 16 0 l 167 714 m 260 1060 l 432 1060 l 517 808 l 421 808 l 336 943 l 186 808 l 82 808 l 260 1060 z "},"ï":{"ha":460,"x_min":16,"x_max":559,"o":"m 167 714 l 410 714 l 258 0 l 16 0 l 167 714 m 391 1025 l 559 1025 l 521 842 l 351 842 l 391 1025 m 144 1025 l 314 1025 l 275 842 l 106 842 l 144 1025 z "},"ñ":{"ha":932,"x_min":-11,"x_max":843,"o":"m 817 285 l 755 0 l 507 0 l 582 358 q 588 396 586 378 q 590 429 590 414 q 566 507 590 479 q 500 534 543 534 q 377 476 426 534 q 302 301 328 418 l 239 0 l -11 0 l 142 721 l 366 721 l 338 593 q 467 697 398 662 q 610 732 535 732 q 782 666 721 732 q 843 482 843 601 q 837 397 843 446 q 817 285 830 347 m 715 1038 l 795 1038 q 735 906 774 947 q 637 864 697 864 q 607 866 622 864 q 578 873 593 869 l 534 888 q 512 894 523 892 q 492 896 502 896 q 448 879 466 896 q 424 831 431 862 l 342 831 q 402 964 363 920 q 501 1008 442 1008 q 532 1005 515 1008 q 565 997 549 1002 l 608 983 q 629 977 620 979 q 647 975 639 975 q 688 990 672 975 q 715 1038 705 1005 z "},"ó":{"ha":926,"x_min":28,"x_max":857,"o":"m 606 408 q 569 526 606 482 q 472 570 533 570 q 337 494 393 570 q 281 309 281 418 q 319 192 281 237 q 418 147 357 147 q 551 222 496 147 q 606 408 606 298 m 486 733 q 758 644 659 733 q 857 397 857 554 q 730 94 857 210 q 395 -21 604 -21 q 126 66 224 -21 q 28 306 28 154 q 152 617 28 501 q 486 733 275 733 m 570 1060 l 781 1060 l 515 808 l 412 808 l 570 1060 z "},"ò":{"ha":926,"x_min":28,"x_max":857,"o":"m 606 408 q 569 526 606 482 q 472 570 533 570 q 337 494 393 570 q 281 309 281 418 q 319 192 281 237 q 418 147 357 147 q 551 222 496 147 q 606 408 606 298 m 486 733 q 758 644 659 733 q 857 397 857 554 q 730 94 857 210 q 395 -21 604 -21 q 126 66 224 -21 q 28 306 28 154 q 152 617 28 501 q 486 733 275 733 m 355 1060 l 539 1060 l 651 808 l 555 808 l 355 1060 z "},"ô":{"ha":926,"x_min":28,"x_max":857,"o":"m 606 408 q 569 526 606 482 q 472 570 533 570 q 337 494 393 570 q 281 309 281 418 q 319 192 281 237 q 418 147 357 147 q 551 222 496 147 q 606 408 606 298 m 486 733 q 758 644 659 733 q 857 397 857 554 q 730 94 857 210 q 395 -21 604 -21 q 126 66 224 -21 q 28 306 28 154 q 152 617 28 501 q 486 733 275 733 m 493 1060 l 665 1060 l 750 808 l 654 808 l 570 943 l 419 808 l 315 808 l 493 1060 z "},"ö":{"ha":926,"x_min":28,"x_max":857,"o":"m 606 408 q 569 526 606 482 q 472 570 533 570 q 337 494 393 570 q 281 309 281 418 q 319 192 281 237 q 418 147 357 147 q 551 222 496 147 q 606 408 606 298 m 486 733 q 758 644 659 733 q 857 397 857 554 q 730 94 857 210 q 395 -21 604 -21 q 126 66 224 -21 q 28 306 28 154 q 152 617 28 501 q 486 733 275 733 m 624 1025 l 793 1025 l 754 842 l 585 842 l 624 1025 m 378 1025 l 547 1025 l 509 842 l 339 842 l 378 1025 z "},"õ":{"ha":926,"x_min":28,"x_max":857,"o":"m 606 408 q 569 526 606 482 q 472 570 533 570 q 337 494 393 570 q 281 309 281 418 q 319 192 281 237 q 418 147 357 147 q 551 222 496 147 q 606 408 606 298 m 486 733 q 758 644 659 733 q 857 397 857 554 q 730 94 857 210 q 395 -21 604 -21 q 126 66 224 -21 q 28 306 28 154 q 152 617 28 501 q 486 733 275 733 m 713 1038 l 793 1038 q 733 906 771 947 q 635 864 694 864 q 605 866 619 864 q 575 873 590 869 l 532 888 q 510 894 520 892 q 489 896 499 896 q 446 879 463 896 q 421 831 428 862 l 339 831 q 400 964 360 920 q 498 1008 439 1008 q 529 1005 512 1008 q 562 997 546 1002 l 606 983 q 627 977 617 979 q 644 975 636 975 q 686 990 669 975 q 713 1038 702 1005 z "},"ú":{"ha":932,"x_min":41,"x_max":896,"o":"m 127 714 l 378 714 l 302 355 q 296 319 298 337 q 294 285 294 301 q 319 205 294 233 q 389 178 343 178 q 508 238 458 178 q 582 412 557 298 l 646 714 l 896 714 l 743 0 l 519 0 l 547 121 q 418 17 486 52 q 275 -18 350 -18 q 102 47 163 -18 q 41 231 41 112 q 48 318 41 267 q 68 429 55 368 l 127 714 m 559 1060 l 770 1060 l 505 808 l 401 808 l 559 1060 z "},"ù":{"ha":932,"x_min":41,"x_max":896,"o":"m 127 714 l 378 714 l 302 355 q 296 319 298 337 q 294 285 294 301 q 319 205 294 233 q 389 178 343 178 q 508 238 458 178 q 582 412 557 298 l 646 714 l 896 714 l 743 0 l 519 0 l 547 121 q 418 17 486 52 q 275 -18 350 -18 q 102 47 163 -18 q 41 231 41 112 q 48 318 41 267 q 68 429 55 368 l 127 714 m 345 1060 l 528 1060 l 640 808 l 545 808 l 345 1060 z "},"û":{"ha":932,"x_min":41,"x_max":896,"o":"m 127 714 l 378 714 l 302 355 q 296 319 298 337 q 294 285 294 301 q 319 205 294 233 q 389 178 343 178 q 508 238 458 178 q 582 412 557 298 l 646 714 l 896 714 l 743 0 l 519 0 l 547 121 q 418 17 486 52 q 275 -18 350 -18 q 102 47 163 -18 q 41 231 41 112 q 48 318 41 267 q 68 429 55 368 l 127 714 m 482 1060 l 654 1060 l 739 808 l 644 808 l 559 943 l 408 808 l 304 808 l 482 1060 z "},"ü":{"ha":932,"x_min":41,"x_max":896,"o":"m 127 714 l 378 714 l 302 355 q 296 319 298 337 q 294 285 294 301 q 319 205 294 233 q 389 178 343 178 q 508 238 458 178 q 582 412 557 298 l 646 714 l 896 714 l 743 0 l 519 0 l 547 121 q 418 17 486 52 q 275 -18 350 -18 q 102 47 163 -18 q 41 231 41 112 q 48 318 41 267 q 68 429 55 368 l 127 714 m 613 1025 l 782 1025 l 743 842 l 574 842 l 613 1025 m 367 1025 l 536 1025 l 498 842 l 328 842 l 367 1025 z "},"†":{"ha":694,"x_min":29,"x_max":737,"o":"m 343 964 l 562 964 l 513 726 l 737 726 l 699 555 l 476 555 l 321 -178 l 100 -178 l 256 555 l 29 555 l 65 726 l 292 726 l 343 964 z "},"°":{"ha":457,"x_min":18,"x_max":440,"o":"m 229 896 q 150 863 182 896 q 117 785 117 831 q 149 705 117 737 q 229 672 182 672 q 308 705 275 672 q 340 785 340 739 q 308 863 340 831 q 229 896 275 896 m 229 994 q 378 932 317 994 q 440 783 440 871 q 378 634 440 696 q 228 572 316 572 q 79 634 140 572 q 18 783 18 695 q 80 933 18 872 q 229 994 141 994 z "},"¢":{"ha":856,"x_min":60,"x_max":751,"o":"m 505 553 q 371 487 421 543 q 321 350 321 432 q 341 257 321 298 q 396 199 361 217 l 505 553 m 611 900 l 708 900 l 648 721 q 703 706 678 714 q 751 688 728 698 l 694 515 q 637 538 660 530 q 595 550 614 547 l 481 172 l 497 172 q 573 181 536 172 q 647 205 611 189 l 618 17 q 531 -2 578 5 q 429 -13 484 -9 l 368 -196 l 272 -196 l 329 -8 q 132 105 203 18 q 60 319 60 193 q 185 621 60 507 q 518 734 310 734 q 543 734 534 734 q 558 733 551 734 l 611 900 z "},"£":{"ha":856,"x_min":-11,"x_max":896,"o":"m 896 951 l 844 779 q 771 804 806 796 q 705 812 736 812 q 564 756 613 812 q 492 570 514 701 l 700 570 l 675 450 l 467 450 l 408 174 l 725 174 l 688 0 l -11 0 l 26 174 l 157 174 l 216 450 l 103 450 l 127 570 l 241 570 q 369 890 268 784 q 650 997 471 997 q 786 985 724 997 q 896 951 848 974 z "},"§":{"ha":694,"x_min":-117,"x_max":720,"o":"m 322 536 q 246 488 270 513 q 222 433 222 464 q 261 366 222 398 q 376 304 299 334 q 444 348 418 318 q 469 408 469 377 q 443 461 469 436 q 322 536 416 486 m 720 947 l 668 782 q 530 833 585 817 q 432 848 474 848 q 350 830 378 848 q 321 779 321 812 q 437 668 321 733 q 490 637 471 648 q 632 524 585 581 q 679 404 679 466 q 637 298 679 346 q 501 205 595 251 q 567 131 545 171 q 589 45 589 91 q 507 -115 589 -57 q 282 -174 425 -174 q 95 -155 191 -174 q -117 -97 -1 -137 l -50 74 q 102 7 20 31 q 261 -17 184 -17 q 340 2 311 -17 q 368 53 368 20 q 363 78 368 64 q 347 104 357 91 q 272 154 333 123 q 182 201 211 184 q 59 311 102 250 q 16 433 16 372 q 59 543 16 494 q 192 632 102 592 q 129 709 150 669 q 107 791 107 749 q 190 945 107 885 q 406 1004 273 1004 q 534 991 460 1004 q 720 947 607 978 z "},"•":{"ha":819,"x_min":208,"x_max":610,"o":"m 208 517 q 267 659 208 600 q 410 717 326 717 q 551 658 492 717 q 610 517 610 600 q 550 375 610 434 q 408 315 491 315 q 267 374 325 315 q 208 517 208 433 z "},"¶":{"ha":694,"x_min":20,"x_max":676,"o":"m 676 1003 l 676 920 l 604 920 l 604 0 l 485 0 l 485 920 l 383 920 l 383 0 l 265 0 l 265 532 q 87 600 154 536 q 20 766 20 665 q 92 938 20 873 q 283 1003 163 1003 l 676 1003 z "},"ß":{"ha":920,"x_min":-8,"x_max":899,"o":"m 682 543 q 803 460 763 515 q 843 323 843 406 q 736 82 843 174 q 456 -11 630 -11 q 389 -6 425 -11 q 314 8 354 -1 l 351 182 q 395 171 374 174 q 437 167 416 167 q 555 215 509 167 q 600 339 600 264 q 566 435 600 402 q 467 468 532 468 q 449 468 455 468 q 439 467 444 467 l 473 631 q 485 630 478 631 q 496 629 492 629 q 616 672 572 629 q 661 785 661 714 q 632 866 661 838 q 547 895 602 895 q 454 858 492 895 q 401 753 416 821 l 241 0 l -8 0 l 150 745 q 285 980 184 907 q 575 1053 385 1053 q 814 987 730 1053 q 899 800 899 921 q 842 640 899 707 q 682 543 785 572 z "},"®":{"ha":1157,"x_min":72,"x_max":1084,"o":"m 517 693 l 517 545 l 571 545 q 646 563 621 545 q 671 616 671 581 q 645 675 671 656 q 562 693 619 693 l 517 693 m 364 789 l 587 789 q 767 748 705 789 q 828 628 828 707 q 797 534 828 573 q 710 478 766 494 l 833 233 l 665 233 l 561 454 l 517 454 l 517 233 l 364 233 l 364 789 m 579 916 q 422 886 495 916 q 290 799 349 856 q 197 661 229 738 q 165 500 165 585 q 195 345 165 418 q 283 212 225 271 q 418 119 342 151 q 578 86 494 86 q 735 117 660 86 q 871 205 811 148 q 962 339 930 263 q 993 500 993 414 q 963 658 993 584 q 876 790 933 732 q 740 884 816 852 q 579 916 665 916 m 578 1007 q 777 968 684 1007 q 943 854 871 929 q 1048 693 1012 784 q 1084 500 1084 602 q 1046 302 1084 395 q 935 140 1008 210 q 768 31 861 69 q 578 -7 676 -7 q 383 33 475 -7 q 218 147 291 72 q 110 311 147 220 q 72 500 72 401 q 112 696 72 602 q 227 864 152 791 q 387 971 298 935 q 578 1007 477 1007 z "},"©":{"ha":1157,"x_min":72,"x_max":1084,"o":"m 828 604 l 684 604 q 651 675 679 650 q 578 700 624 700 q 490 648 522 700 q 458 501 458 595 q 491 357 458 406 q 585 309 523 309 q 657 336 630 309 q 688 414 684 363 l 833 414 q 761 258 829 317 q 582 199 692 199 q 378 278 453 199 q 302 496 302 358 q 378 719 302 636 q 581 802 453 802 q 755 747 687 802 q 828 604 823 693 m 579 916 q 420 885 494 916 q 288 794 346 854 q 196 658 228 734 q 164 500 164 582 q 196 343 164 419 q 288 208 228 268 q 422 118 347 149 q 579 86 497 86 q 738 118 661 86 q 875 210 814 150 q 963 340 933 267 q 993 500 993 414 q 962 660 993 585 q 873 793 932 734 q 739 884 814 853 q 579 916 664 916 m 578 1007 q 774 969 682 1007 q 939 859 866 931 q 1047 695 1010 787 q 1084 500 1084 604 q 1048 305 1084 396 q 940 144 1011 214 q 772 32 866 71 q 578 -7 679 -7 q 386 32 477 -7 q 221 143 294 71 q 110 307 149 216 q 72 500 72 398 q 111 693 72 600 q 222 860 150 786 q 384 969 294 932 q 578 1007 474 1007 z "},"™":{"ha":1157,"x_min":127,"x_max":996,"o":"m 541 993 l 692 993 l 768 787 l 846 993 l 996 993 l 996 619 l 890 619 l 890 884 l 791 619 l 747 619 l 646 884 l 646 619 l 541 619 l 541 993 m 127 993 l 468 993 l 468 907 l 357 907 l 357 619 l 239 619 l 239 907 l 127 907 l 127 993 z "},"´":{"ha":694,"x_min":296,"x_max":664,"o":"m 453 1060 l 664 1060 l 399 808 l 296 808 l 453 1060 z "},"¨":{"ha":694,"x_min":222,"x_max":676,"o":"m 507 1025 l 676 1025 l 637 842 l 468 842 l 507 1025 m 261 1025 l 431 1025 l 392 842 l 222 842 l 261 1025 z "},"≠":{"ha":1157,"x_min":172,"x_max":985,"o":"m 810 848 l 924 755 l 832 642 l 985 642 l 985 492 l 729 492 l 607 338 l 985 338 l 985 187 l 507 187 l 340 -21 l 225 72 l 317 187 l 172 187 l 172 338 l 416 338 l 541 492 l 172 492 l 172 642 l 643 642 l 810 848 z "},"Æ":{"ha":1415,"x_min":-45,"x_max":1428,"o":"m 612 785 l 414 386 l 632 386 l 713 785 l 612 785 m 479 964 l 1428 964 l 1389 785 l 966 785 l 926 591 l 1324 591 l 1287 418 l 889 418 l 839 180 l 1276 180 l 1238 0 l 547 0 l 593 215 l 323 215 l 210 0 l -45 0 l 479 964 z "},"Ø":{"ha":1080,"x_min":49,"x_max":1031,"o":"m 764 682 l 393 179 q 433 161 412 168 q 478 155 454 155 q 567 173 525 155 q 642 224 608 191 q 742 384 703 285 q 781 579 781 484 q 777 627 781 602 q 764 682 772 652 m 673 799 q 641 811 659 807 q 602 815 623 815 q 509 796 553 815 q 429 742 464 777 q 336 584 372 682 q 300 387 300 487 q 302 344 300 368 q 310 298 305 321 l 673 799 m 907 1117 l 1017 1026 l 909 884 q 1000 749 970 827 q 1031 572 1031 671 q 999 367 1031 467 q 913 192 968 267 q 719 30 832 84 q 460 -24 606 -24 q 359 -14 406 -24 q 272 16 312 -4 l 164 -135 l 52 -47 l 157 92 q 76 228 104 151 q 49 395 49 304 q 102 661 49 539 q 254 867 155 783 q 418 957 326 927 q 625 987 511 987 q 715 981 675 987 q 790 960 756 974 l 907 1117 z "},"∞":{"ha":1157,"x_min":132,"x_max":1026,"o":"m 648 380 q 718 312 677 335 q 807 289 758 289 q 906 323 868 289 q 945 411 945 357 q 910 497 945 463 q 823 532 875 532 q 734 497 774 532 q 648 380 694 463 m 510 446 q 441 514 481 491 q 351 536 402 536 q 252 503 290 536 q 214 415 214 469 q 248 329 214 363 q 335 294 283 294 q 425 330 383 294 q 510 446 466 366 m 581 300 q 480 169 534 212 q 361 126 427 126 q 199 209 267 126 q 132 412 132 291 q 192 619 132 540 q 346 699 251 699 q 459 660 407 699 q 578 525 511 622 q 680 657 626 614 q 798 700 733 700 q 959 618 892 700 q 1026 414 1026 536 q 967 206 1026 286 q 812 126 907 126 q 700 163 751 126 q 581 300 649 201 z "},"±":{"ha":1157,"x_min":172,"x_max":985,"o":"m 172 144 l 985 144 l 985 -12 l 172 -12 l 172 144 m 498 842 l 660 842 l 660 625 l 985 625 l 985 468 l 660 468 l 660 252 l 498 252 l 498 468 l 172 468 l 172 625 l 498 625 l 498 842 z "},"≤":{"ha":1157,"x_min":174,"x_max":985,"o":"m 174 144 l 985 144 l 985 -11 l 174 -11 l 174 144 m 983 852 l 983 690 l 457 528 l 983 366 l 983 203 l 174 460 l 174 596 l 983 852 z "},"≥":{"ha":1157,"x_min":174,"x_max":985,"o":"m 174 144 l 985 144 l 985 -11 l 174 -11 l 174 144 m 175 852 l 983 596 l 983 460 l 175 203 l 175 366 l 701 528 l 175 690 l 175 852 z "},"¥":{"ha":851,"x_min":-7,"x_max":951,"o":"m 58 964 l 309 964 l 390 684 q 403 638 396 667 q 418 574 410 610 l 433 602 q 482 686 471 669 l 668 964 l 951 964 l 710 631 l 823 631 l 804 538 l 640 538 l 555 418 l 778 418 l 757 325 l 507 325 l 436 0 l 180 0 l 248 325 l -7 325 l 16 418 l 235 418 l 197 539 l 40 539 l 58 631 l 167 631 l 58 964 z "},"µ":{"ha":892,"x_min":-31,"x_max":854,"o":"m 131 739 l 374 739 l 319 380 q 313 328 315 353 q 311 283 311 303 q 335 197 311 226 q 408 168 359 168 q 502 215 468 168 q 553 364 536 261 l 612 739 l 854 739 l 736 0 l 518 0 l 530 85 q 470 12 503 34 q 389 -11 436 -11 q 316 10 349 -11 q 264 71 284 31 l 208 -290 l -31 -290 l 131 739 z "},"∂":{"ha":755,"x_min":40,"x_max":715,"o":"m 519 464 q 541 604 534 541 q 549 705 549 667 q 529 806 549 764 q 482 847 509 847 q 393 784 458 847 q 271 721 327 721 q 216 744 238 721 q 195 800 195 766 q 258 885 195 847 q 407 924 321 924 q 632 814 549 924 q 715 515 715 705 q 605 133 715 282 q 322 -17 495 -17 q 119 62 199 -17 q 40 265 40 141 q 121 493 40 403 q 323 583 202 583 q 439 554 392 583 q 519 464 486 526 m 473 361 q 449 480 473 438 q 378 522 424 522 q 269 430 313 522 q 225 195 225 337 q 250 75 225 116 q 322 35 275 35 q 431 126 388 35 q 473 361 473 218 z "},"∑":{"ha":1031,"x_min":33,"x_max":999,"o":"m 49 999 l 954 999 l 954 794 l 386 794 l 790 382 l 392 -60 l 999 -60 l 999 -267 l 33 -267 l 33 -142 l 497 371 l 49 822 l 49 999 z "},"∏":{"ha":1116,"x_min":98,"x_max":1013,"o":"m 98 999 l 1013 999 l 1013 -267 l 742 -267 l 742 772 l 370 772 l 370 -267 l 98 -267 l 98 999 z "},"π":{"ha":1038,"x_min":4,"x_max":1043,"o":"m 1043 739 l 1017 582 l 896 582 l 804 0 l 562 0 l 653 582 l 496 582 l 404 0 l 164 0 l 254 582 l 236 582 q 188 558 208 582 q 163 492 169 534 l 4 492 q 89 686 26 633 q 300 739 151 739 l 1043 739 z "},"∫":{"ha":847,"x_min":35,"x_max":814,"o":"m 245 -168 q 326 284 313 -168 q 329 389 328 353 q 417 899 340 743 q 654 1055 494 1055 q 770 1019 726 1055 q 814 926 814 983 q 786 856 814 883 q 714 829 758 829 q 649 856 671 829 q 627 932 627 882 q 622 965 627 958 q 604 972 616 972 q 520 520 536 972 q 518 458 519 479 q 497 138 511 235 q 458 -28 484 41 q 350 -197 416 -140 q 195 -253 284 -253 q 78 -218 122 -253 q 35 -123 35 -182 q 63 -53 35 -79 q 139 -26 92 -26 q 202 -51 180 -26 q 224 -121 224 -75 q 222 -137 224 -129 q 222 -139 222 -138 q 228 -162 222 -155 q 245 -168 233 -168 z "},"ª":{"ha":636,"x_min":5,"x_max":579,"o":"m 386 694 q 365 695 376 695 q 332 696 353 696 q 219 676 258 696 q 180 618 180 656 q 199 577 180 593 q 249 561 218 561 q 338 597 300 561 q 386 694 376 634 m 568 733 l 536 591 q 523 525 528 555 q 515 465 518 495 l 359 465 l 370 542 q 292 476 338 498 q 184 454 245 454 q 54 495 103 454 q 5 603 5 536 q 88 737 5 689 q 321 785 170 785 q 364 784 342 785 q 407 781 385 783 q 408 787 408 783 q 408 798 408 790 q 382 855 408 836 q 306 875 356 875 q 214 865 258 875 q 131 836 170 856 l 153 953 q 241 975 197 968 q 330 982 285 982 q 513 940 448 982 q 579 823 579 898 q 576 783 579 806 q 568 733 574 760 z "},"º":{"ha":694,"x_min":21,"x_max":643,"o":"m 454 751 q 427 833 454 803 q 354 864 399 864 q 253 811 296 864 q 211 681 211 758 q 240 600 211 631 q 314 568 269 568 q 413 621 372 568 q 454 751 454 674 m 366 979 q 569 916 495 979 q 643 743 643 853 q 548 532 643 612 q 296 452 453 452 q 94 512 168 452 q 21 679 21 573 q 114 898 21 817 q 366 979 207 979 z "},"Ω":{"ha":1116,"x_min":31,"x_max":1084,"o":"m 859 208 l 1084 208 l 1084 0 l 653 0 l 653 239 q 749 372 715 294 q 783 539 783 450 q 722 735 783 663 q 557 807 661 807 q 392 734 453 807 q 330 538 330 661 q 364 371 330 448 q 461 239 398 293 l 461 0 l 31 0 l 31 208 l 256 208 q 120 364 166 273 q 74 567 74 455 q 207 899 74 772 q 557 1025 339 1025 q 908 899 776 1025 q 1040 567 1040 774 q 994 364 1040 455 q 859 208 948 273 z "},"æ":{"ha":1279,"x_min":7,"x_max":1210,"o":"m 514 326 q 486 328 500 328 q 443 329 471 329 q 292 301 344 329 q 240 218 240 273 q 266 160 240 182 q 332 138 291 138 q 451 189 400 138 q 514 326 501 241 m 1017 431 q 1019 451 1019 445 q 1019 464 1019 458 q 988 558 1019 524 q 904 593 957 593 q 807 550 850 593 q 746 431 765 507 l 1017 431 m 692 665 q 807 723 751 705 q 924 742 864 742 q 1134 660 1059 742 q 1210 432 1210 578 q 1206 362 1210 397 q 1194 293 1202 328 l 717 293 q 766 176 724 214 q 889 138 808 138 q 999 152 941 138 q 1114 193 1056 165 l 1088 17 q 966 -14 1027 -3 q 843 -24 905 -24 q 674 11 739 -24 q 568 121 608 45 q 432 19 510 53 q 260 -16 355 -16 q 74 41 142 -16 q 7 197 7 98 q 117 389 7 320 q 428 457 228 457 q 480 455 452 457 q 543 450 509 454 q 544 459 544 454 q 545 473 545 465 q 509 556 545 528 q 407 585 474 585 q 286 571 345 585 q 174 530 228 557 l 203 697 q 335 731 272 720 q 456 742 397 742 q 600 723 540 742 q 692 665 659 703 z "},"ø":{"ha":926,"x_min":28,"x_max":857,"o":"m 606 489 l 353 150 q 382 140 368 143 q 408 136 396 136 q 561 213 501 136 q 621 410 621 290 q 617 446 621 427 q 606 489 614 465 m 537 568 q 502 577 519 574 q 472 581 486 581 q 327 502 390 581 q 264 317 264 422 q 268 274 264 296 q 281 229 272 252 l 537 568 m 722 827 l 806 760 l 733 661 q 826 551 794 618 q 857 397 857 484 q 728 93 857 208 q 383 -22 598 -22 q 317 -16 350 -22 q 250 1 283 -10 l 154 -129 l 71 -57 l 149 47 q 59 159 90 93 q 28 306 28 224 q 153 617 28 498 q 482 736 279 736 q 559 730 521 736 q 636 711 597 724 l 722 827 z "},"¿":{"ha":765,"x_min":20,"x_max":629,"o":"m 325 644 l 525 644 q 497 530 524 581 q 390 408 470 479 q 368 389 382 401 q 268 244 268 298 q 303 172 268 197 q 406 147 339 147 q 524 159 467 147 q 629 196 580 172 l 600 8 q 485 -17 544 -8 q 363 -25 426 -25 q 111 38 202 -25 q 20 208 20 100 q 195 479 20 326 l 208 492 q 302 586 279 555 q 325 644 324 616 m 382 964 l 612 964 l 568 749 l 336 749 l 382 964 z "},"¡":{"ha":611,"x_min":75,"x_max":518,"o":"m 244 650 l 435 650 l 330 0 l 75 0 l 244 650 m 290 964 l 518 964 l 473 743 l 244 743 l 290 964 z "},"¬":{"ha":1157,"x_min":172,"x_max":985,"o":"m 172 587 l 985 587 l 985 248 l 829 248 l 829 433 l 172 433 l 172 587 z "},"√":{"ha":926,"x_min":52,"x_max":929,"o":"m 783 1162 l 929 1162 l 929 1061 l 864 1061 l 464 -28 l 383 -28 l 175 546 l 77 509 l 52 596 l 296 682 l 447 252 l 783 1162 z "},"ƒ":{"ha":856,"x_min":-8,"x_max":786,"o":"m 786 964 l 753 798 q 712 820 732 812 q 677 828 693 828 q 620 795 644 828 q 582 697 595 762 l 561 595 l 701 595 l 701 425 l 525 425 l 454 92 q 407 -96 427 -39 q 363 -183 387 -152 q 267 -261 319 -237 q 139 -285 214 -285 q 64 -277 102 -285 q -8 -253 27 -269 l 21 -92 q 65 -113 45 -106 q 98 -121 85 -121 q 159 -92 138 -121 q 199 18 181 -64 l 285 425 l 138 425 l 138 595 l 321 595 l 355 764 q 444 945 382 888 q 614 1003 506 1003 q 696 993 654 1003 q 786 964 739 983 z "},"≈":{"ha":1157,"x_min":121,"x_max":1038,"o":"m 1038 408 l 1038 236 q 905 165 966 188 q 782 143 843 143 q 590 188 721 143 q 380 232 459 232 q 263 207 325 232 q 121 125 202 182 l 121 297 q 262 371 196 347 q 395 395 329 395 q 601 350 473 395 q 786 306 730 306 q 901 330 842 306 q 1038 408 960 353 m 1038 703 l 1038 530 q 904 461 965 483 q 783 439 843 439 q 591 483 722 439 q 380 526 460 526 q 264 502 323 526 q 121 419 204 477 l 121 593 q 262 666 197 643 q 395 689 328 689 q 601 645 473 689 q 786 600 730 600 q 902 624 842 600 q 1038 703 961 648 z "},"∆":{"ha":996,"x_min":-1,"x_max":999,"o":"m 497 718 l 319 193 l 676 193 l 497 718 m 364 999 l 632 999 l 999 0 l -1 0 l 364 999 z "},"«":{"ha":920,"x_min":43,"x_max":900,"o":"m 664 646 l 900 646 l 627 354 l 831 79 l 606 79 l 403 366 l 664 646 m 286 646 l 524 646 l 271 374 l 484 79 l 258 79 l 43 389 l 286 646 z "},"»":{"ha":920,"x_min":-7,"x_max":850,"o":"m 410 646 l 635 646 l 850 335 l 607 78 l 370 78 l 623 351 l 410 646 m 62 646 l 288 646 l 490 358 l 229 78 l -7 78 l 267 371 l 62 646 z "},"…":{"ha":1389,"x_min":34,"x_max":1238,"o":"m 81 222 l 311 222 l 264 0 l 34 0 l 81 222 m 543 222 l 774 222 l 726 0 l 496 0 l 543 222 m 1007 222 l 1238 222 l 1190 0 l 960 0 l 1007 222 z "}," ":{"ha":856,"x_min":0,"x_max":0,"o":""},"À":{"ha":1039,"x_min":-86,"x_max":958,"o":"m 612 775 l 399 387 l 659 387 l 612 775 m 484 964 l 803 964 l 958 0 l 703 0 l 677 205 l 300 205 l 184 0 l -86 0 l 484 964 m 454 1312 l 637 1312 l 749 1060 l 654 1060 l 454 1312 z "},"Ã":{"ha":1039,"x_min":-86,"x_max":958,"o":"m 612 775 l 399 387 l 659 387 l 612 775 m 484 964 l 803 964 l 958 0 l 703 0 l 677 205 l 300 205 l 184 0 l -86 0 l 484 964 m 811 1289 l 891 1289 q 831 1157 869 1199 q 733 1116 793 1116 q 703 1118 718 1116 q 673 1125 688 1120 l 630 1139 q 608 1145 618 1143 q 587 1147 597 1147 q 544 1131 562 1147 q 519 1082 526 1114 l 437 1082 q 498 1216 458 1171 q 597 1260 538 1260 q 627 1257 610 1260 q 661 1249 644 1254 l 704 1235 q 725 1229 715 1231 q 743 1227 734 1227 q 784 1242 768 1227 q 811 1289 800 1257 z "},"Õ":{"ha":1080,"x_min":49,"x_max":1032,"o":"m 766 586 q 720 749 766 692 q 590 807 674 807 q 479 772 531 807 q 386 671 427 738 q 331 537 352 616 q 310 385 310 459 q 357 224 310 283 q 485 165 404 165 q 594 199 544 165 q 690 302 644 233 q 745 434 724 356 q 766 586 766 512 m 607 986 q 920 877 807 986 q 1032 572 1032 767 q 1000 368 1032 469 q 913 192 968 267 q 723 32 834 87 q 476 -24 611 -24 q 162 87 275 -24 q 49 395 49 198 q 77 593 49 498 q 157 760 105 689 q 351 930 239 873 q 607 986 463 986 m 832 1289 l 912 1289 q 852 1157 890 1199 q 754 1116 814 1116 q 724 1118 739 1116 q 694 1125 709 1120 l 651 1139 q 629 1145 640 1143 q 608 1147 618 1147 q 565 1131 583 1147 q 541 1082 547 1114 l 458 1082 q 519 1216 479 1171 q 618 1260 559 1260 q 648 1257 631 1260 q 682 1249 665 1254 l 725 1235 q 746 1229 736 1231 q 764 1227 755 1227 q 805 1242 789 1227 q 832 1289 821 1257 z "},"Œ":{"ha":1479,"x_min":62,"x_max":1495,"o":"m 778 787 q 689 795 729 792 q 623 798 650 798 q 501 777 550 798 q 414 711 452 757 q 336 563 366 654 q 307 375 307 472 q 356 226 307 272 q 515 180 405 180 q 575 182 542 180 q 652 188 608 184 l 778 787 m 833 964 l 1495 964 l 1457 785 l 1034 785 l 993 591 l 1392 591 l 1354 418 l 956 418 l 905 180 l 1343 180 l 1305 0 l 642 0 q 572 -4 631 0 q 465 -8 513 -8 q 171 105 280 -8 q 62 414 62 219 q 96 623 62 521 q 191 799 130 725 q 374 941 271 896 q 616 986 476 986 q 759 975 687 986 q 833 964 831 964 z "},"œ":{"ha":1415,"x_min":28,"x_max":1346,"o":"m 1328 293 l 815 293 q 867 177 823 214 q 999 139 912 139 q 1119 153 1057 139 q 1242 193 1181 167 l 1214 17 q 1088 -12 1154 -2 q 950 -21 1022 -21 q 798 0 859 -21 q 692 65 736 20 q 548 0 622 22 q 392 -21 474 -21 q 125 67 223 -21 q 28 306 28 155 q 152 617 28 501 q 486 733 275 733 q 629 711 565 733 q 749 644 693 690 q 883 714 810 690 q 1038 737 956 737 q 1266 657 1185 737 q 1346 429 1346 577 q 1341 368 1346 401 q 1328 293 1337 334 m 1137 431 q 1140 451 1139 445 q 1140 464 1140 458 q 1106 558 1140 524 q 1015 593 1073 593 q 913 550 958 593 q 847 431 868 507 l 1137 431 m 606 408 q 569 526 606 482 q 472 570 533 570 q 337 494 393 570 q 281 309 281 418 q 319 192 281 237 q 418 147 357 147 q 551 222 496 147 q 606 408 606 298 z "},"–":{"ha":694,"x_min":-28,"x_max":694,"o":"m 0 471 l 694 471 l 665 336 l -28 336 l 0 471 z "},"—":{"ha":1389,"x_min":-28,"x_max":1389,"o":"m 0 471 l 1389 471 l 1360 336 l -28 336 l 0 471 z "},"“":{"ha":842,"x_min":92,"x_max":884,"o":"m 693 1042 l 884 1042 l 730 664 l 486 664 l 693 1042 m 298 1042 l 489 1042 l 336 664 l 92 664 l 298 1042 z "},"”":{"ha":842,"x_min":117,"x_max":908,"o":"m 664 1042 l 908 1042 l 701 664 l 511 664 l 664 1042 m 269 1042 l 514 1042 l 307 664 l 117 664 l 269 1042 z "},"‘":{"ha":428,"x_min":93,"x_max":490,"o":"m 300 1042 l 490 1042 l 338 664 l 93 664 l 300 1042 z "},"’":{"ha":428,"x_min":107,"x_max":504,"o":"m 260 1042 l 504 1042 l 298 664 l 107 664 l 260 1042 z "},"÷":{"ha":1157,"x_min":172,"x_max":985,"o":"m 579 252 q 658 219 625 252 q 690 139 690 186 q 658 60 690 93 q 579 28 626 28 q 499 60 532 28 q 467 139 467 93 q 500 218 467 185 q 579 252 533 252 m 172 493 l 985 493 l 985 336 l 172 336 l 172 493 m 579 802 q 657 768 625 802 q 690 689 690 735 q 657 610 690 643 q 578 578 625 578 q 499 610 531 578 q 467 689 467 643 q 500 768 467 735 q 579 802 533 802 z "},"◊":{"ha":686,"x_min":4,"x_max":682,"o":"m 343 956 l 82 401 l 343 -158 l 604 401 l 343 956 m 343 1121 l 682 401 l 343 -323 l 4 401 l 343 1121 z "},"ÿ":{"ha":842,"x_min":-114,"x_max":869,"o":"m 49 714 l 297 714 l 340 427 l 340 424 q 363 233 357 313 q 399 318 382 279 q 432 385 417 357 l 610 714 l 869 714 l 411 -72 q 260 -255 333 -205 q 77 -304 186 -304 q -11 -295 36 -304 q -114 -268 -58 -286 l -56 -94 q -1 -113 -27 -107 q 49 -119 24 -119 q 145 -91 105 -119 q 208 -5 185 -62 l 49 714 m 581 1025 l 750 1025 l 711 842 l 542 842 l 581 1025 m 335 1025 l 505 1025 l 466 842 l 296 842 l 335 1025 z "},"Ÿ":{"ha":939,"x_min":65,"x_max":1038,"o":"m 65 964 l 346 964 l 436 684 q 447 643 437 680 q 464 574 456 606 q 506 643 487 612 q 534 686 525 673 l 737 964 l 1038 964 l 561 364 l 484 0 l 228 0 l 300 364 l 65 964 m 673 1276 l 842 1276 l 803 1093 l 633 1093 l 673 1276 m 427 1276 l 596 1276 l 557 1093 l 388 1093 l 427 1276 z "},"∕":{"ha":232,"x_min":-211,"x_max":443,"o":"m 298 987 l 443 987 l -66 -22 l -211 -22 l 298 987 z "},"¤":{"ha":856,"x_min":-3,"x_max":909,"o":"m 21 418 l 109 418 l 109 431 q 119 525 109 463 q 121 538 120 534 l 35 539 l 58 631 l 142 631 q 319 886 188 785 q 607 986 450 986 q 763 971 684 986 q 909 929 841 957 l 846 733 q 743 782 789 768 q 637 796 696 796 q 492 753 557 796 q 389 631 427 709 l 741 631 l 717 539 l 358 539 q 348 480 351 508 q 345 424 345 452 l 345 418 l 690 418 l 667 326 l 353 326 q 413 212 367 248 q 547 176 460 176 q 651 190 600 176 q 766 236 703 204 l 742 14 q 608 -14 667 -5 q 489 -22 548 -22 q 212 72 312 -22 q 113 326 113 167 l -3 326 l 21 418 z "},"‹":{"ha":538,"x_min":35,"x_max":515,"o":"m 278 640 l 515 640 l 262 367 l 475 72 l 250 72 l 35 383 l 278 640 z "},"›":{"ha":538,"x_min":-16,"x_max":464,"o":"m 24 639 l 249 639 l 464 329 l 222 72 l -16 72 l 236 345 l 24 639 z "},"":{"ha":1061,"x_min":31,"x_max":1068,"o":"m 760 714 l 1003 714 l 851 0 l 608 0 l 760 714 m 823 1015 l 1068 1015 l 1029 835 l 786 835 l 823 1015 m 710 1028 l 663 868 q 623 882 642 877 q 590 886 605 886 q 504 841 538 886 q 461 714 470 795 l 642 714 l 606 541 l 425 541 l 310 0 l 64 0 l 178 541 l 31 541 l 66 714 l 215 714 q 321 975 241 894 q 551 1055 401 1055 q 630 1048 590 1055 q 710 1028 669 1042 z "},"ﬁ":{"ha":1061,"x_min":31,"x_max":1068,"o":"m 760 714 l 1003 714 l 851 0 l 608 0 l 760 714 m 823 1015 l 1068 1015 l 1029 835 l 786 835 l 823 1015 m 710 1028 l 663 868 q 623 882 642 877 q 590 886 605 886 q 504 841 538 886 q 461 714 470 795 l 642 714 l 606 541 l 425 541 l 310 0 l 64 0 l 178 541 l 31 541 l 66 714 l 215 714 q 321 975 241 894 q 551 1055 401 1055 q 630 1048 590 1055 q 710 1028 669 1042 z "},"":{"ha":1061,"x_min":31,"x_max":1076,"o":"m 710 1028 l 663 868 q 623 882 642 877 q 590 886 605 886 q 504 841 538 886 q 461 714 470 795 l 642 714 l 606 541 l 425 541 l 310 0 l 64 0 l 178 541 l 31 541 l 66 714 l 215 714 q 321 975 241 894 q 551 1055 401 1055 q 630 1048 590 1055 q 710 1028 669 1042 m 829 1042 l 1076 1042 l 856 0 l 608 0 l 829 1042 z "},"ﬂ":{"ha":1061,"x_min":31,"x_max":1076,"o":"m 710 1028 l 663 868 q 623 882 642 877 q 590 886 605 886 q 504 841 538 886 q 461 714 470 795 l 642 714 l 606 541 l 425 541 l 310 0 l 64 0 l 178 541 l 31 541 l 66 714 l 215 714 q 321 975 241 894 q 551 1055 401 1055 q 630 1048 590 1055 q 710 1028 669 1042 m 829 1042 l 1076 1042 l 856 0 l 608 0 l 829 1042 z "},"‡":{"ha":694,"x_min":-72,"x_max":724,"o":"m 338 964 l 554 964 l 497 690 l 724 690 l 688 521 l 461 521 l 408 273 l 635 273 l 599 103 l 372 103 l 313 -178 l 97 -178 l 155 103 l -72 103 l -36 273 l 191 273 l 243 521 l 17 521 l 53 690 l 279 690 l 338 964 z "},"·":{"ha":428,"x_min":97,"x_max":332,"o":"m 214 600 q 297 566 263 600 q 332 482 332 531 q 297 400 332 434 q 214 366 262 366 q 132 400 167 366 q 97 482 97 435 q 132 565 97 530 q 214 600 166 600 z "},"‚":{"ha":428,"x_min":-74,"x_max":326,"o":"m 83 218 l 326 218 l 121 -151 l -74 -151 l 83 218 z "},"„":{"ha":842,"x_min":-71,"x_max":722,"o":"m 478 222 l 722 222 l 515 -155 l 325 -155 l 478 222 m 82 222 l 326 222 l 121 -155 l -71 -155 l 82 222 z "},"‰":{"ha":1890,"x_min":50,"x_max":1841,"o":"m 1597 422 q 1545 385 1561 422 q 1529 260 1529 347 q 1545 135 1529 171 q 1596 98 1560 98 q 1647 135 1632 98 q 1662 260 1662 171 q 1647 386 1662 350 q 1597 422 1632 422 m 1023 422 q 972 385 988 422 q 957 260 957 348 q 972 135 957 171 q 1023 98 987 98 q 1075 135 1060 98 q 1090 260 1090 171 q 1075 386 1090 349 q 1023 422 1059 422 m 1597 543 q 1774 467 1708 543 q 1841 260 1841 390 q 1774 54 1841 130 q 1597 -22 1708 -22 q 1420 54 1487 -22 q 1354 260 1354 131 q 1420 467 1354 390 q 1597 543 1486 543 m 1025 543 q 1202 467 1137 543 q 1268 260 1268 390 q 1202 54 1268 130 q 1025 -22 1136 -22 q 847 55 914 -22 q 781 260 781 132 q 847 467 781 390 q 1025 543 913 543 m 293 867 q 241 829 257 867 q 225 704 225 791 q 240 578 225 614 q 292 542 256 542 q 343 578 328 542 q 358 704 358 614 q 343 830 358 794 q 293 867 328 867 m 842 987 l 985 987 l 476 -22 l 332 -22 l 842 987 m 293 987 q 470 911 404 987 q 536 704 536 834 q 470 498 536 574 q 293 421 404 421 q 116 498 182 421 q 50 704 50 574 q 116 911 50 834 q 293 987 182 987 z "},"Â":{"ha":1039,"x_min":-86,"x_max":958,"o":"m 612 775 l 399 387 l 659 387 l 612 775 m 484 964 l 803 964 l 958 0 l 703 0 l 677 205 l 300 205 l 184 0 l -86 0 l 484 964 m 591 1312 l 764 1312 l 848 1060 l 753 1060 l 668 1195 l 517 1060 l 414 1060 l 591 1312 z "},"Ê":{"ha":839,"x_min":-11,"x_max":873,"o":"m 195 964 l 873 964 l 835 785 l 412 785 l 372 591 l 770 591 l 733 418 l 335 418 l 285 180 l 722 180 l 684 0 l -11 0 l 195 964 m 492 1312 l 664 1312 l 749 1060 l 653 1060 l 568 1195 l 418 1060 l 314 1060 l 492 1312 z "},"Á":{"ha":1039,"x_min":-86,"x_max":958,"o":"m 612 775 l 399 387 l 659 387 l 612 775 m 484 964 l 803 964 l 958 0 l 703 0 l 677 205 l 300 205 l 184 0 l -86 0 l 484 964 m 668 1312 l 879 1312 l 614 1060 l 511 1060 l 668 1312 z "},"Ë":{"ha":839,"x_min":-11,"x_max":873,"o":"m 195 964 l 873 964 l 835 785 l 412 785 l 372 591 l 770 591 l 733 418 l 335 418 l 285 180 l 722 180 l 684 0 l -11 0 l 195 964 m 623 1276 l 791 1276 l 753 1093 l 583 1093 l 623 1276 m 376 1276 l 546 1276 l 507 1093 l 338 1093 l 376 1276 z "},"È":{"ha":839,"x_min":-11,"x_max":873,"o":"m 195 964 l 873 964 l 835 785 l 412 785 l 372 591 l 770 591 l 733 418 l 335 418 l 285 180 l 722 180 l 684 0 l -11 0 l 195 964 m 354 1312 l 538 1312 l 650 1060 l 554 1060 l 354 1312 z "},"Í":{"ha":460,"x_min":-5,"x_max":590,"o":"m 200 964 l 457 964 l 252 0 l -5 0 l 200 964 m 379 1312 l 590 1312 l 325 1060 l 222 1060 l 379 1312 z "},"Î":{"ha":460,"x_min":-5,"x_max":559,"o":"m 200 964 l 457 964 l 252 0 l -5 0 l 200 964 m 302 1312 l 475 1312 l 559 1060 l 464 1060 l 379 1195 l 229 1060 l 125 1060 l 302 1312 z "},"Ï":{"ha":460,"x_min":-5,"x_max":602,"o":"m 200 964 l 457 964 l 252 0 l -5 0 l 200 964 m 433 1276 l 602 1276 l 564 1093 l 394 1093 l 433 1276 m 187 1276 l 357 1276 l 318 1093 l 149 1093 l 187 1276 z "},"Ì":{"ha":460,"x_min":-5,"x_max":460,"o":"m 200 964 l 457 964 l 252 0 l -5 0 l 200 964 m 165 1312 l 349 1312 l 460 1060 l 365 1060 l 165 1312 z "},"Ó":{"ha":1080,"x_min":49,"x_max":1032,"o":"m 766 586 q 720 749 766 692 q 590 807 674 807 q 479 772 531 807 q 386 671 427 738 q 331 537 352 616 q 310 385 310 459 q 357 224 310 283 q 485 165 404 165 q 594 199 544 165 q 690 302 644 233 q 745 434 724 356 q 766 586 766 512 m 607 986 q 920 877 807 986 q 1032 572 1032 767 q 1000 368 1032 469 q 913 192 968 267 q 723 32 834 87 q 476 -24 611 -24 q 162 87 275 -24 q 49 395 49 198 q 77 593 49 498 q 157 760 105 689 q 351 930 239 873 q 607 986 463 986 m 689 1312 l 900 1312 l 635 1060 l 532 1060 l 689 1312 z "},"Ô":{"ha":1080,"x_min":49,"x_max":1032,"o":"m 766 586 q 720 749 766 692 q 590 807 674 807 q 479 772 531 807 q 386 671 427 738 q 331 537 352 616 q 310 385 310 459 q 357 224 310 283 q 485 165 404 165 q 594 199 544 165 q 690 302 644 233 q 745 434 724 356 q 766 586 766 512 m 607 986 q 920 877 807 986 q 1032 572 1032 767 q 1000 368 1032 469 q 913 192 968 267 q 723 32 834 87 q 476 -24 611 -24 q 162 87 275 -24 q 49 395 49 198 q 77 593 49 498 q 157 760 105 689 q 351 930 239 873 q 607 986 463 986 m 612 1312 l 785 1312 l 869 1060 l 774 1060 l 689 1195 l 538 1060 l 435 1060 l 612 1312 z "},"":{"ha":1097,"x_min":77,"x_max":1021,"o":"m 567 825 q 566 834 566 829 q 566 850 566 840 q 630 1005 566 934 q 790 1095 694 1077 q 791 1079 791 1088 q 791 1053 791 1070 q 721 893 791 964 q 583 823 651 823 l 578 823 q 573 824 576 823 q 567 825 570 825 m 1021 273 q 882 41 943 106 q 743 -24 820 -24 q 654 -1 709 -24 q 571 21 599 21 q 482 -1 541 21 q 396 -24 424 -24 q 309 6 353 -24 q 221 96 265 36 q 114 296 152 191 q 77 500 77 401 q 161 742 77 648 q 380 835 246 835 q 486 812 427 835 q 570 789 545 789 q 652 812 593 789 q 755 836 711 836 q 890 809 830 836 q 999 725 949 782 q 896 626 930 681 q 863 503 863 572 q 903 367 863 426 q 1021 273 944 308 z "},"Ò":{"ha":1080,"x_min":49,"x_max":1032,"o":"m 766 586 q 720 749 766 692 q 590 807 674 807 q 479 772 531 807 q 386 671 427 738 q 331 537 352 616 q 310 385 310 459 q 357 224 310 283 q 485 165 404 165 q 594 199 544 165 q 690 302 644 233 q 745 434 724 356 q 766 586 766 512 m 607 986 q 920 877 807 986 q 1032 572 1032 767 q 1000 368 1032 469 q 913 192 968 267 q 723 32 834 87 q 476 -24 611 -24 q 162 87 275 -24 q 49 395 49 198 q 77 593 49 498 q 157 760 105 689 q 351 930 239 873 q 607 986 463 986 m 475 1312 l 659 1312 l 770 1060 l 675 1060 l 475 1312 z "},"Ú":{"ha":1022,"x_min":62,"x_max":1023,"o":"m 193 964 l 452 964 l 335 427 q 323 357 327 391 q 319 290 319 323 q 359 199 319 236 q 456 161 398 161 q 578 221 533 161 q 659 436 624 281 l 775 964 l 1023 964 l 900 364 q 748 68 858 161 q 440 -25 638 -25 q 160 59 258 -25 q 62 298 62 142 q 66 367 62 334 q 77 429 69 399 l 193 964 m 660 1312 l 871 1312 l 606 1060 l 503 1060 l 660 1312 z "},"Û":{"ha":1022,"x_min":62,"x_max":1023,"o":"m 193 964 l 452 964 l 335 427 q 323 357 327 391 q 319 290 319 323 q 359 199 319 236 q 456 161 398 161 q 578 221 533 161 q 659 436 624 281 l 775 964 l 1023 964 l 900 364 q 748 68 858 161 q 440 -25 638 -25 q 160 59 258 -25 q 62 298 62 142 q 66 367 62 334 q 77 429 69 399 l 193 964 m 583 1312 l 755 1312 l 840 1060 l 745 1060 l 660 1195 l 509 1060 l 406 1060 l 583 1312 z "},"Ù":{"ha":1022,"x_min":62,"x_max":1023,"o":"m 193 964 l 452 964 l 335 427 q 323 357 327 391 q 319 290 319 323 q 359 199 319 236 q 456 161 398 161 q 578 221 533 161 q 659 436 624 281 l 775 964 l 1023 964 l 900 364 q 748 68 858 161 q 440 -25 638 -25 q 160 59 258 -25 q 62 298 62 142 q 66 367 62 334 q 77 429 69 399 l 193 964 m 446 1312 l 629 1312 l 741 1060 l 646 1060 l 446 1312 z "},"ı":{"ha":460,"x_min":16,"x_max":410,"o":"m 167 714 l 410 714 l 258 0 l 16 0 l 167 714 z "},"ˆ":{"ha":694,"x_min":199,"x_max":633,"o":"m 376 1060 l 549 1060 l 633 808 l 538 808 l 453 943 l 302 808 l 199 808 l 376 1060 z "},"˜":{"ha":694,"x_min":222,"x_max":676,"o":"m 596 1038 l 676 1038 q 616 906 654 947 q 518 864 578 864 q 488 866 503 864 q 458 873 473 869 l 415 888 q 393 894 404 892 q 372 896 382 896 q 329 879 347 896 q 304 831 311 862 l 222 831 q 283 964 243 920 q 382 1008 323 1008 q 412 1005 395 1008 q 446 997 429 1002 l 489 983 q 510 977 500 979 q 528 975 519 975 q 569 990 553 975 q 596 1038 585 1005 z "},"¯":{"ha":694,"x_min":229,"x_max":669,"o":"m 254 991 l 669 991 l 646 876 l 229 876 l 254 991 z "},"˘":{"ha":694,"x_min":256,"x_max":686,"o":"m 257 1038 l 346 1038 l 346 1031 q 370 965 346 986 q 444 943 394 943 q 536 966 500 943 q 595 1038 573 989 l 686 1038 q 591 881 654 932 q 428 829 528 829 q 299 874 343 829 q 256 1007 256 920 q 256 1026 256 1019 q 257 1038 256 1032 z "},"˙":{"ha":694,"x_min":340,"x_max":558,"o":"m 382 1029 l 558 1029 l 518 839 l 340 839 l 382 1029 z "},"˚":{"ha":694,"x_min":278,"x_max":646,"o":"m 463 1063 q 403 1039 427 1063 q 379 979 379 1015 q 403 920 379 944 q 463 896 427 896 q 521 920 497 896 q 545 979 545 944 q 521 1039 545 1015 q 463 1063 497 1063 m 461 1164 q 592 1110 538 1164 q 646 981 646 1057 q 592 850 646 903 q 461 796 539 796 q 331 849 384 796 q 278 981 278 903 q 331 1111 278 1058 q 461 1164 384 1164 z "},"¸":{"ha":694,"x_min":52,"x_max":440,"o":"m 227 0 l 304 0 l 282 -62 q 400 -94 360 -64 q 440 -180 440 -123 q 391 -297 440 -256 q 252 -338 342 -338 q 168 -328 216 -338 q 52 -297 119 -318 l 86 -207 q 170 -234 130 -224 q 245 -243 211 -243 q 294 -229 276 -243 q 311 -192 311 -216 q 287 -156 311 -167 q 204 -146 262 -146 l 176 -146 l 227 0 z "},"˝":{"ha":694,"x_min":265,"x_max":789,"o":"m 600 1060 l 789 1060 l 551 808 l 469 808 l 600 1060 m 364 1060 l 546 1060 l 340 808 l 265 808 l 364 1060 z "},"˛":{"ha":694,"x_min":100,"x_max":359,"o":"m 232 0 l 304 0 q 243 -70 262 -38 q 224 -134 224 -101 q 236 -174 224 -161 q 275 -187 249 -187 l 359 -187 l 332 -317 l 294 -317 q 144 -286 189 -317 q 100 -183 100 -254 q 132 -88 100 -132 q 232 0 163 -43 z "},"ˇ":{"ha":694,"x_min":252,"x_max":686,"o":"m 252 1060 l 347 1060 l 432 925 l 583 1060 l 686 1060 l 510 808 l 338 808 l 252 1060 z "},"Ł":{"ha":785,"x_min":-7,"x_max":714,"o":"m 221 964 l 481 964 l 415 667 l 631 754 l 599 590 l 383 503 l 315 192 l 714 192 l 672 0 l 16 0 l 97 390 l -7 343 l 25 507 l 132 551 l 221 964 z "},"ł":{"ha":460,"x_min":-11,"x_max":498,"o":"m 225 1042 l 472 1042 l 392 661 l 498 708 l 471 579 l 364 533 l 252 0 l 4 0 l 96 433 l -11 387 l 17 517 l 123 562 l 225 1042 z "},"Š":{"ha":846,"x_min":-18,"x_max":833,"o":"m 833 942 l 774 754 q 667 790 721 778 q 555 802 612 802 q 424 776 469 802 q 378 703 378 751 q 481 608 378 650 q 546 579 522 591 q 709 465 666 521 q 753 323 753 410 q 632 72 753 165 q 304 -22 511 -22 q 137 -9 217 -22 q -18 31 56 4 l 37 229 q 154 184 98 199 q 265 170 211 170 q 421 202 364 170 q 478 290 478 235 q 327 420 478 360 q 268 444 289 435 q 146 535 186 479 q 106 671 106 591 q 218 898 106 810 q 511 985 330 985 q 694 974 612 985 q 833 942 776 963 m 371 1312 l 467 1312 l 551 1177 l 703 1312 l 806 1312 l 629 1060 l 457 1060 l 371 1312 z "},"š":{"ha":694,"x_min":-20,"x_max":686,"o":"m 664 692 l 610 534 q 499 566 542 557 q 421 575 457 575 q 339 557 369 575 q 310 510 310 540 q 399 439 310 471 q 457 416 436 425 q 568 342 533 385 q 603 240 603 300 q 511 52 603 123 q 265 -20 419 -20 q 118 -8 189 -20 q -20 26 47 3 l 32 199 q 132 162 82 174 q 232 150 181 150 q 325 166 292 150 q 357 214 357 183 q 273 291 357 258 q 253 298 260 296 q 111 385 149 341 q 74 500 74 429 q 167 669 74 604 q 412 734 260 734 q 532 724 470 734 q 664 692 595 713 m 252 1060 l 347 1060 l 432 925 l 583 1060 l 686 1060 l 510 808 l 338 808 l 252 1060 z "},"Ž":{"ha":868,"x_min":-37,"x_max":926,"o":"m 183 964 l 926 964 l 880 770 l 286 186 l 760 186 l 714 0 l -37 0 l 8 225 l 568 781 l 144 781 l 183 964 m 382 1312 l 478 1312 l 563 1177 l 714 1312 l 817 1312 l 641 1060 l 469 1060 l 382 1312 z "},"ž":{"ha":726,"x_min":-41,"x_max":725,"o":"m 123 714 l 725 714 l 685 524 l 301 180 l 625 180 l 586 0 l -41 0 l -1 191 l 382 538 l 86 538 l 123 714 m 269 1060 l 364 1060 l 449 925 l 600 1060 l 703 1060 l 527 808 l 355 808 l 269 1060 z "},"¦":{"ha":694,"x_min":267,"x_max":429,"o":"m 267 277 l 429 277 l 429 -237 l 267 -237 l 267 277 m 267 971 l 429 971 l 429 457 l 267 457 l 267 971 z "},"Ð":{"ha":1086,"x_min":-4,"x_max":1039,"o":"m 439 778 l 395 567 l 564 567 l 534 429 l 366 429 l 314 191 l 421 191 q 565 210 507 191 q 667 272 624 230 q 746 396 718 323 q 775 546 775 468 q 713 718 775 657 q 536 778 651 778 l 439 778 m 215 964 l 536 964 q 915 859 790 964 q 1039 538 1039 753 q 995 309 1039 414 q 872 135 951 203 q 684 32 792 64 q 414 0 576 0 l 11 0 l 104 429 l -4 429 l 25 567 l 131 567 l 215 964 z "},"ð":{"ha":926,"x_min":28,"x_max":859,"o":"m 606 408 q 569 526 606 482 q 472 570 533 570 q 337 494 393 570 q 281 309 281 418 q 319 192 281 237 q 418 147 357 147 q 551 222 496 147 q 606 408 606 298 m 262 1039 l 517 1039 q 548 1008 534 1023 q 572 981 562 994 l 750 1032 l 778 945 l 642 903 q 807 651 755 768 q 859 416 859 534 q 734 97 859 215 q 395 -21 609 -21 q 126 67 224 -21 q 28 306 28 155 q 53 457 28 385 q 125 587 77 530 q 263 694 180 656 q 433 733 345 733 q 473 731 450 733 q 526 725 496 729 q 480 799 499 770 q 443 848 460 827 l 225 786 l 197 878 l 378 926 q 326 978 355 951 q 262 1039 298 1006 z "},"Ý":{"ha":939,"x_min":65,"x_max":1038,"o":"m 65 964 l 346 964 l 436 684 q 447 643 437 680 q 464 574 456 606 q 506 643 487 612 q 534 686 525 673 l 737 964 l 1038 964 l 561 364 l 484 0 l 228 0 l 300 364 l 65 964 m 618 1312 l 829 1312 l 564 1060 l 461 1060 l 618 1312 z "},"ý":{"ha":842,"x_min":-114,"x_max":869,"o":"m 49 714 l 297 714 l 340 427 l 340 424 q 363 233 357 313 q 399 318 382 279 q 432 385 417 357 l 610 714 l 869 714 l 411 -72 q 260 -255 333 -205 q 77 -304 186 -304 q -11 -295 36 -304 q -114 -268 -58 -286 l -56 -94 q -1 -113 -27 -107 q 49 -119 24 -119 q 145 -91 105 -119 q 208 -5 185 -62 l 49 714 m 527 1060 l 738 1060 l 473 808 l 370 808 l 527 1060 z "},"Þ":{"ha":859,"x_min":-22,"x_max":828,"o":"m 367 616 l 313 358 l 380 358 q 525 396 474 358 q 576 501 576 433 q 537 587 576 557 q 427 616 498 616 l 367 616 m 183 964 l 439 964 l 403 790 l 431 790 q 731 727 635 790 q 828 529 828 663 q 717 268 828 363 q 412 172 606 172 q 354 173 388 172 q 275 176 320 174 l 235 0 l -22 0 l 183 964 z "},"þ":{"ha":951,"x_min":-60,"x_max":892,"o":"m 636 406 q 603 510 636 471 q 513 549 569 549 q 381 479 437 549 q 325 315 325 410 q 361 205 325 246 q 457 164 397 164 q 584 235 531 164 q 636 406 636 305 m 224 1042 l 471 1042 l 383 631 q 489 709 431 683 q 614 734 547 734 q 817 648 741 734 q 892 415 892 562 q 787 101 892 222 q 514 -20 682 -20 q 375 16 435 -20 q 278 119 314 52 l 191 -290 l -60 -290 l 224 1042 z "},"−":{"ha":1157,"x_min":172,"x_max":985,"o":"m 172 494 l 985 494 l 985 335 l 172 335 l 172 494 z "},"×":{"ha":1157,"x_min":182,"x_max":999,"o":"m 292 823 l 590 525 l 889 823 l 999 714 l 700 414 l 999 115 l 889 5 l 590 304 l 292 5 l 182 115 l 481 414 l 182 714 l 292 823 z "},"¹":{"ha":564,"x_min":94,"x_max":471,"o":"m 346 962 l 471 962 l 340 385 l 179 385 l 286 817 l 160 733 l 94 844 l 346 962 z "},"²":{"ha":566,"x_min":-7,"x_max":524,"o":"m 374 587 l 225 493 l 469 493 l 443 385 l -7 385 l 18 493 l 254 657 q 335 727 311 695 q 359 791 359 759 q 334 848 359 827 q 265 869 309 869 q 206 861 239 869 q 114 832 172 853 l 132 954 q 220 973 178 966 q 300 979 262 979 q 464 933 404 979 q 524 807 524 886 q 485 690 524 747 q 374 587 446 633 z "},"³":{"ha":566,"x_min":-12,"x_max":528,"o":"m 361 684 q 447 640 418 670 q 476 562 476 609 q 402 421 476 472 q 195 371 328 371 q 93 380 144 371 q -12 410 41 390 l 21 525 q 90 498 52 507 q 174 489 128 489 q 278 512 239 489 q 317 572 317 534 q 284 620 317 604 q 183 635 252 635 q 160 634 168 635 q 143 633 151 634 l 165 733 l 208 733 q 335 748 300 733 q 371 800 371 764 q 344 850 371 832 q 269 868 317 868 q 199 861 239 868 q 113 840 159 854 l 131 954 q 216 970 172 964 q 309 975 260 975 q 470 935 412 975 q 528 825 528 895 q 483 730 528 768 q 361 684 439 692 z "},"¼":{"ha":1310,"x_min":90,"x_max":1287,"o":"m 1125 443 l 905 204 l 1061 204 l 1125 443 m 1103 541 l 1280 541 l 1200 204 l 1287 204 l 1264 109 l 1178 109 l 1153 0 l 1002 0 l 1026 109 l 765 109 l 782 204 l 1103 541 m 838 987 l 982 987 l 472 -22 l 328 -22 l 838 987 m 329 962 l 449 962 l 325 422 l 171 422 l 273 825 l 153 747 l 90 851 l 329 962 z "},"½":{"ha":1310,"x_min":90,"x_max":1271,"o":"m 1126 189 l 986 102 l 1219 102 l 1194 0 l 765 0 l 787 102 l 1014 254 q 1090 318 1066 288 q 1114 379 1114 349 q 1089 432 1114 412 q 1023 452 1065 452 q 966 444 999 452 q 879 416 932 435 l 897 530 q 980 549 940 543 q 1059 555 1021 555 q 1214 512 1156 555 q 1271 395 1271 469 q 1234 286 1271 339 q 1126 189 1197 233 m 838 987 l 982 987 l 472 -22 l 328 -22 l 838 987 m 329 962 l 449 962 l 325 422 l 171 422 l 273 825 l 153 747 l 90 851 l 329 962 z "},"¾":{"ha":1310,"x_min":-12,"x_max":1287,"o":"m 1125 443 l 905 204 l 1061 204 l 1125 443 m 1103 541 l 1280 541 l 1200 204 l 1287 204 l 1264 109 l 1178 109 l 1153 0 l 1002 0 l 1026 109 l 765 109 l 782 204 l 1103 541 m 838 987 l 982 987 l 472 -22 l 328 -22 l 838 987 m 345 701 q 428 659 400 688 q 456 587 456 631 q 385 456 456 503 q 186 410 314 410 q 87 419 136 410 q -12 446 38 428 l 20 553 q 87 528 51 536 q 167 519 124 519 q 265 541 229 519 q 301 597 301 562 q 271 642 301 627 q 175 656 241 656 q 153 655 161 656 q 136 654 144 655 l 158 749 q 180 748 166 749 q 200 747 193 747 q 320 762 286 747 q 354 810 354 776 q 328 857 354 840 q 257 873 302 873 q 188 867 226 873 q 107 847 151 861 l 125 954 q 207 969 165 964 q 294 974 249 974 q 448 936 392 974 q 504 833 504 899 q 461 744 504 779 q 345 701 419 709 z "},"₣":{"ha":1415,"x_min":-9,"x_max":1458,"o":"m 196 964 l 840 964 l 802 785 l 412 785 l 370 576 l 742 576 l 704 396 l 330 396 l 248 0 l -9 0 l 196 964 m 1458 718 l 1402 510 q 1341 524 1368 519 q 1295 529 1314 529 q 1171 479 1215 529 q 1099 309 1126 430 l 1032 0 l 782 0 l 928 717 l 1154 717 l 1128 586 q 1238 699 1182 664 q 1364 733 1293 733 q 1409 729 1385 733 q 1458 718 1432 726 z "},"Ğ":{"ha":1059,"x_min":53,"x_max":1011,"o":"m 1011 940 l 956 742 q 843 786 901 771 q 722 800 785 800 q 422 703 531 800 q 314 435 314 605 q 380 240 314 311 q 564 170 447 170 q 612 173 587 170 q 667 184 637 177 l 710 386 l 551 386 l 589 561 l 990 561 l 876 28 q 723 -8 804 4 q 545 -20 642 -20 q 182 100 311 -20 q 53 437 53 220 q 89 643 53 547 q 196 810 125 738 q 403 945 284 902 q 692 987 522 987 q 859 976 779 987 q 1011 940 938 964 m 482 1289 l 571 1289 l 571 1282 q 595 1216 571 1238 q 669 1195 619 1195 q 762 1218 725 1195 q 820 1289 798 1241 l 911 1289 q 816 1132 880 1183 q 653 1081 753 1081 q 525 1126 568 1081 q 481 1259 481 1171 q 481 1277 481 1271 q 482 1289 481 1284 z "},"ğ":{"ha":951,"x_min":32,"x_max":917,"o":"m 597 403 q 560 508 597 468 q 464 549 523 549 q 337 478 389 549 q 285 302 285 407 q 319 202 285 241 q 408 164 353 164 q 542 234 486 164 q 597 403 597 304 m 669 714 l 917 714 l 765 1 q 624 -232 733 -155 q 328 -309 515 -309 q 189 -296 259 -309 q 47 -258 119 -283 l 93 -74 q 196 -119 140 -104 q 317 -135 252 -135 q 494 -68 433 -135 q 576 144 556 -2 q 455 36 522 72 q 310 0 389 0 q 107 85 183 0 q 32 313 32 170 q 53 458 32 389 q 114 583 73 526 q 240 695 165 656 q 408 733 316 733 q 547 697 487 733 q 643 593 607 662 l 669 714 m 386 1038 l 475 1038 l 475 1031 q 499 965 475 986 q 573 943 523 943 q 665 966 629 943 q 724 1038 702 989 l 815 1038 q 720 881 783 932 q 557 829 656 829 q 428 874 472 829 q 385 1007 385 920 q 385 1026 385 1019 q 386 1038 385 1032 z "},"İ":{"ha":460,"x_min":-5,"x_max":484,"o":"m 200 964 l 457 964 l 252 0 l -5 0 l 200 964 m 308 1281 l 484 1281 l 444 1090 l 267 1090 l 308 1281 z "},"Ş":{"ha":846,"x_min":-18,"x_max":833,"o":"m 833 942 l 774 754 q 667 790 721 778 q 555 802 612 802 q 424 776 469 802 q 378 703 378 751 q 481 608 378 650 q 546 579 522 591 q 709 465 666 521 q 753 323 753 410 q 632 72 753 165 q 304 -22 511 -22 q 137 -9 217 -22 q -18 31 56 4 l 37 229 q 154 184 98 199 q 265 170 211 170 q 421 202 364 170 q 478 290 478 235 q 327 420 478 360 q 268 444 289 435 q 146 535 186 479 q 106 671 106 591 q 218 898 106 810 q 511 985 330 985 q 694 974 612 985 q 833 942 776 963 m 303 0 l 381 0 l 359 -62 q 477 -94 437 -64 q 517 -180 517 -123 q 468 -297 517 -256 q 328 -338 418 -338 q 244 -328 293 -338 q 128 -297 195 -318 l 163 -207 q 247 -234 206 -224 q 322 -243 288 -243 q 370 -229 353 -243 q 388 -192 388 -216 q 363 -156 388 -167 q 281 -146 339 -146 l 253 -146 l 303 0 z "},"ş":{"ha":694,"x_min":-20,"x_max":664,"o":"m 664 692 l 610 534 q 499 566 542 557 q 421 575 457 575 q 339 557 369 575 q 310 510 310 540 q 399 439 310 471 q 457 416 436 425 q 568 342 533 385 q 603 240 603 300 q 511 52 603 123 q 265 -20 419 -20 q 118 -8 189 -20 q -20 26 47 3 l 32 199 q 132 162 82 174 q 232 150 181 150 q 325 166 292 150 q 357 214 357 183 q 273 291 357 258 q 253 298 260 296 q 111 385 149 341 q 74 500 74 429 q 167 669 74 604 q 412 734 260 734 q 532 724 470 734 q 664 692 595 713 m 227 0 l 304 0 l 282 -62 q 400 -94 360 -64 q 440 -180 440 -123 q 391 -297 440 -256 q 252 -338 342 -338 q 168 -328 216 -338 q 52 -297 119 -318 l 86 -207 q 170 -234 130 -224 q 245 -243 211 -243 q 294 -229 276 -243 q 311 -192 311 -216 q 287 -156 311 -167 q 204 -146 262 -146 l 176 -146 l 227 0 z "},"Ć":{"ha":920,"x_min":50,"x_max":978,"o":"m 978 929 l 914 733 q 807 781 863 765 q 685 796 750 796 q 413 697 511 796 q 315 424 315 599 q 389 243 315 310 q 590 176 463 176 q 704 191 646 176 q 821 236 761 206 l 796 14 q 660 -13 726 -4 q 532 -22 594 -22 q 177 98 304 -22 q 50 431 50 218 q 90 643 50 541 q 200 818 130 745 q 393 946 285 905 q 650 986 501 986 q 808 972 727 986 q 978 929 890 958 m 667 1312 l 878 1312 l 612 1060 l 509 1060 l 667 1312 z "},"ć":{"ha":692,"x_min":18,"x_max":710,"o":"m 710 688 l 653 515 q 575 543 613 534 q 500 553 536 553 q 340 496 401 553 q 279 347 279 439 q 329 219 279 267 q 464 172 379 172 q 533 180 498 172 q 606 205 568 189 l 576 17 q 469 -5 519 2 q 372 -12 418 -12 q 114 78 210 -12 q 18 319 18 169 q 142 620 18 506 q 471 734 267 734 q 591 723 532 734 q 710 688 651 711 m 499 1060 l 710 1060 l 445 808 l 342 808 l 499 1060 z "},"Č":{"ha":920,"x_min":50,"x_max":978,"o":"m 978 929 l 914 733 q 807 781 863 765 q 685 796 750 796 q 413 697 511 796 q 315 424 315 599 q 389 243 315 310 q 590 176 463 176 q 704 191 646 176 q 821 236 761 206 l 796 14 q 660 -13 726 -4 q 532 -22 594 -22 q 177 98 304 -22 q 50 431 50 218 q 90 643 50 541 q 200 818 130 745 q 393 946 285 905 q 650 986 501 986 q 808 972 727 986 q 978 929 890 958 m 465 1312 l 561 1312 l 646 1177 l 797 1312 l 900 1312 l 724 1060 l 551 1060 l 465 1312 z "},"č":{"ha":692,"x_min":18,"x_max":732,"o":"m 710 688 l 653 515 q 575 543 613 534 q 500 553 536 553 q 340 496 401 553 q 279 347 279 439 q 329 219 279 267 q 464 172 379 172 q 533 180 498 172 q 606 205 568 189 l 576 17 q 469 -5 519 2 q 372 -12 418 -12 q 114 78 210 -12 q 18 319 18 169 q 142 620 18 506 q 471 734 267 734 q 591 723 532 734 q 710 688 651 711 m 298 1060 l 393 1060 l 478 925 l 629 1060 l 732 1060 l 556 808 l 384 808 l 298 1060 z "},"đ":{"ha":951,"x_min":29,"x_max":1061,"o":"m 597 403 q 561 508 597 468 q 464 549 524 549 q 337 477 389 549 q 285 302 285 406 q 319 202 285 241 q 408 164 353 164 q 542 234 486 164 q 597 403 597 304 m 741 1042 l 986 1042 l 964 935 l 1061 935 l 1038 825 l 940 825 l 765 0 l 543 0 l 570 119 q 453 15 519 50 q 309 -21 387 -21 q 105 65 180 -21 q 29 297 29 151 q 135 611 29 490 q 408 733 241 733 q 546 697 486 733 q 643 593 606 661 l 693 825 l 488 825 l 511 935 l 717 935 l 741 1042 z "},"­":{"ha":460,"x_min":9,"x_max":421,"o":"m 47 492 l 421 492 l 383 317 l 9 317 l 47 492 z "},"∙":{"ha":428,"x_min":97,"x_max":332,"o":"m 214 600 q 297 566 263 600 q 332 482 332 531 q 297 400 332 434 q 214 366 262 366 q 132 400 167 366 q 97 482 97 435 q 132 565 97 530 q 214 600 166 600 z "},"":{"ha":856,"x_min":-3,"x_max":909,"o":"m 21 418 l 109 418 l 109 431 q 119 525 109 463 q 121 538 120 534 l 35 539 l 58 631 l 142 631 q 319 886 188 785 q 607 986 450 986 q 763 971 684 986 q 909 929 841 957 l 846 733 q 743 782 789 768 q 637 796 696 796 q 492 753 557 796 q 389 631 427 709 l 741 631 l 717 539 l 358 539 q 348 480 351 508 q 345 424 345 452 l 345 418 l 690 418 l 667 326 l 353 326 q 413 212 367 248 q 547 176 460 176 q 651 190 600 176 q 766 236 703 204 l 742 14 q 608 -14 667 -5 q 489 -22 548 -22 q 212 72 312 -22 q 113 326 113 167 l -3 326 l 21 418 z "},"€":{"ha":856,"x_min":-3,"x_max":909,"o":"m 21 418 l 109 418 l 109 431 q 119 525 109 463 q 121 538 120 534 l 35 539 l 58 631 l 142 631 q 319 886 188 785 q 607 986 450 986 q 763 971 684 986 q 909 929 841 957 l 846 733 q 743 782 789 768 q 637 796 696 796 q 492 753 557 796 q 389 631 427 709 l 741 631 l 717 539 l 358 539 q 348 480 351 508 q 345 424 345 452 l 345 418 l 690 418 l 667 326 l 353 326 q 413 212 367 248 q 547 176 460 176 q 651 190 600 176 q 766 236 703 204 l 742 14 q 608 -14 667 -5 q 489 -22 548 -22 q 212 72 312 -22 q 113 326 113 167 l -3 326 l 21 418 z "}}}
